<?xml version="1.0" standalone="no"?>
<!DOCTYPE svg PUBLIC "-//W3C//DTD SVG 1.1//EN" "http://www.w3.org/Graphics/SVG/1.1/DTD/svg11.dtd">
<svg xmlns="http://www.w3.org/2000/svg">
<metadata>Copyright (C) 2020 by original authors @ fontello.com</metadata>
<defs>
<font id="fontello" horiz-adv-x="1000" >
<font-face font-family="fontello" font-weight="400" font-stretch="normal" units-per-em="1000" ascent="850" descent="-150" />
<missing-glyph horiz-adv-x="1000" />
<glyph glyph-name="glyph1" unicode="&#xe800;" d="M0-88v0 0 0z" horiz-adv-x="0" />

<glyph glyph-name="glyph1-1" unicode="&#xe801;" d="M0-88v0 0 0z" horiz-adv-x="0" />

<glyph glyph-name="uni0001" unicode="&#xe802;" d="M0-88v0 0 0z" horiz-adv-x="0" />

<glyph glyph-name="space" unicode="&#xe803;" d="M0-88v0 0 0z" horiz-adv-x="500" />

<glyph glyph-name="tramite_presencial" unicode="&#xe8de;" d="M500-146c-234 0-424 129-424 287s190 288 424 288 424-129 424-288-190-287-424-287z m0 593c-110 0-200 89-200 200s90 199 200 199c110 0 200-89 200-199-1-111-90-200-200-200l0 0z" horiz-adv-x="1000" />

<glyph glyph-name="tramite_sin_costo" unicode="&#xe8df;" d="M622 351c-26 29-62 45-101 45h-42c-13 0-25 5-33 15-9 10-13 22-12 35 4 24 24 42 48 41h48c14 0 26-9 28-23 2-8 10-15 19-15h54c6 0 11 3 15 7 3 4 5 9 5 14-5 56-48 101-104 108v46c0 11-9 19-19 19 0 0 0 0 0 0h-53c-10 0-19-8-19-19 0 0 0 0 0 0v-47c-70-13-118-77-111-148 9-71 70-124 142-123h34c12 0 25-6 33-15 9-10 13-23 12-35-3-24-24-42-48-41h-49c-13 0-25 9-28 23-2 8-10 14-18 14h-55c-5 0-11-2-14-6-4-4-5-9-5-15 6-55 49-100 105-107v-46c0-10 8-19 19-19 0 0 0 0 0 0h53c11 0 19 9 19 19 0 0 0 0 0 0v48c60 12 105 60 112 120 4 38-9 77-35 105z m-122 495c-274 0-496-222-496-496 0-274 222-496 496-496 274 0 496 222 496 496 0 274-222 496-496 496z m-406-496c0 92 31 181 88 254l117-117c7 30 23 59 45 81l-98 98c72 58 161 89 253 89 224 0 406-182 406-406 0-92-31-181-89-253l-115 117c-8-31-24-59-46-81l98-100c-72-57-161-88-253-88-224 0-406 182-406 406l0 0z" horiz-adv-x="1000" />

<glyph glyph-name="logo_govco_negro" unicode="&#xe8e0;" d="M450 431l-32-12-3-8-7-5c-1 13-2 25-4 37l11 0 21 26-31-13-3-9-30-23c2-13 2-26 1-39l7 4c3-126-55-173-55-173-7 3-13 7-18 12 52 58 50 143 50 146l-6-4c1 13 2 27 1 40l-9-8c0 9-1 16-2 21 6 0 12 1 17 4 5 6 8 13 9 20 1 5 0 7-3 9-4 3-8 6-11 10 0 0 5 2 16-4 13-6 22-3 33 13l-13-2 1 9c0 0 1 0 1 0 3-2 7-3 11-4 3-1 3 0 4-2s4-1 5-1c0 0 7-4 10 0 1-1 3-1 4-2 2-1 4-1 7-2 1 0 3 0 4-1 5-2 8-1 8 0s-3 5-5 7c-2 2-3 2-5 3 1 0 0 1-1 3-2 2-5 4-8 5 0 2-6 6-10 9-4 3-3 3-7 7-10 9-21 18-32 26-18 14-37 25-58 33-14 7-30 7-44 0-7-4-9-12-6-19 2-5 4-10 7-14 2-4 1-4 0-4-1-1 0-2-1-2s-2-1-3-2c-1-1-2-2-4-2 0 1 0 2 1 3-2 1-3 1-4 1 0 1 1 1 1 1-1 0-3 0-4 0 0 1 1 1 1 1-3 1-5 0-7-2-1 2-2 4-4 5-2 2-3 4-5 6 1 2 1 3 1 5-2 2-4 4-6 4 1 1 1 2 1 3 0 1-2 2-3 2-2 0-4-1-5-2-1 0-2 0-3 0 3 6 0 14-6 17-14 7-30 7-44 0-21-8-40-20-58-33-11-8-22-17-32-26-4-5-3-4-7-7s-10-7-10-9c-3-1-5-3-8-5-1-2-2-3-1-3-2-1-3-2-5-3-2-2-6-6-5-7 0-1 3-2 8 0 1 1 3 1 4 1 3 1 5 1 7 2 2 1 3 2 4 2 3-4 10 0 10 0 2 0 3 0 5 1 2 1 2 1 4 2 4 1 8 2 11 4 0 0 1 0 1 0l1-9-13 2c10-16 20-19 33-13 11 6 16 4 16 4-3-4-7-7-11-10-3-2-4-4-3-9 1-7 4-14 9-20 5-3 11-4 17-4-1-5-1-12-2-21l-10 8c0-13 0-27 1-40l-5 4c0-3-3-88 50-146-5-5-12-9-19-12 0 0-57 48-54 173l6-4c0 13 0 26 1 39l-30 23-3 9-31 13 21-26 12 0c-3-12-4-24-4-37l-7 5-3 8-31 11 23-25 11 1c0 0-12-112 26-172 32-50 78-50 119-22-5-16-12-31-20-46 5 0 11 0 17-1 0 0-2-8-3-10-1-2 0-6 4-6s10 0 10 0-1-5-1-8c0-4-1-6 14-6 16 0 15 2 15 6 0 3-1 8-1 8s5 0 10 0c4 0 4 4 3 6s-2 10-2 10c5 1 11 1 17 1-8 15-15 30-21 46 42-28 88-27 119 22 38 60 27 172 27 172l11-1 22 25z m-182 43c1 6 2 11 3 10 1-1 3-1 4 0 1 1 1 1 2 0s4-3 6 1c3 4 2 2 3 1 0-2 2-2 4-1 2 2 4 3 5 4 2 0 2 0 3 2s2 2 2 3c0 1-1 2 0 3 2 0 2 1 4 0 1 0 1 1 2 0 0 0 1-1 2 0 0 0 0 0 0 0 1 1 2 2 3 1 1-2 3-2 3-1s1 1 2-1c1-1 3-2 5-2 0 0 2-3 4-2 3 0 4 1 4 3s-1 8 1 7 1-1 2 0c0 1 1 0 2 0 1 0 0 2 2 0 1-1 1-2 3-2 1-1 2-1 3-3 2-1 3-3 6-2 0 0 1-2 3-2 0 0 4-4 6-3 1-1 3-1 4-2 1 0 2 1 2 1 1-1 1 1 2 0s3-4 4-3c2-2 4-2 5-3 3 0 3-1 4-1s0 1 1 0c1-1 3-2 5-1 1 0 2 0 3 0 0 0 1 0 1 0-4-5-11-7-17-5-12 4-16 2-18 0-4-4-7-9-9-14-1-5 0-8 8-18-9 0-18 1-26 4-14 5-29 5-43 0-2-1-4-2-7-3-1 2-5 6-7 8 1 2 1 5 1 7 0 2 0 4-1 6-2 2-2 5-1 8l0 0z m60-49c-11-6-23-9-35-9-10 0-20 2-30 7 9 5 19 8 29 8 11 1 22-1 32-4l4-2z m-69 24l0 0c2-1 4-1 6-1 3-2 5-4 7-6-4-2-8-5-12-8-1 3-1 7-2 11 0 2 1 3 1 4l0 0z m-21 79c3-1 5-3 6-5 1-1 1-2 1-3-2 1-3 1-5 1-2 3-5 6-8 8 2 0 4 0 6-1l0 0z m-14 1c0 1 0 1 0 0 3-4 8-8 14-9-1-1-1-1-2-1-3 0-5 1-8 2-1 1-1 2-2 2-1 0 0 1-1 2-1 1-3 1-1 4z m-3-46c1-2 1-5 2-7 0 0 0-1-1-1 0 3-1 5-3 8 1 0 2 0 2 0z m-73-40c8 10 9 14 8 18-2 5-6 10-9 14-3 3-6 4-18 1-6-3-13-1-17 5 0 0 1 0 1 0 1 0 2 0 3-1 2 0 3 0 5 1 1 1 1 1 1 1s2 0 4 1c2 0 3 1 5 2 1 0 3 2 4 3 1 1 1 0 2 0 0 1 1 0 2 0 1 0 3 0 4 1 2 0 6 4 6 4 1 0 3 2 3 2 3-1 4 0 6 2 1 1 2 2 3 2 2 1 2 1 3 3 2 1 2 0 2 0s2 1 2 0c1-1 1-2 2-1 2 2 1-4 1-6 0-2 1-3 4-4 2 0 4 3 4 3 2-1 4 0 5 2 1 1 1 1 2 0 0-1 2 0 3 1 1 2 2 0 3 0 0-1 1-1 2-1 0 0 0 0 0 1 1 1 1-1 3 0s2 0 3-1 1-2 1-3c0-1 1-1 2-3 1-1 1-1 2-2 2-1 4-2 5-3 1-1 3-1 4 0 0 0 1 0 1 0 0-1 0-3 1-3l0 0c1 0 1 1 2 2 0-1 1 0 2-1-3-6-3-14 1-20l0 0c0 0 0 1 1 1 0-2 0-5 0-7-2-3-3-7-5-10-13 5-28 5-42-1-9-1-18-3-27-3z m64-12c-2-6-4-11-7-15-12 0-23 3-32 9l3 1c10 4 21 6 32 5 1 0 2 0 4 0z m-50-8c2 0 3 1 4 1 11-10 25-15 39-14 16-1 32 4 45 14 12-10 28-15 44-14 15-1 29 4 39 14 2-1 3-1 4-1 2-24 1-48-2-71h-171c-3 23-4 47-2 71z m3-77h170c-2-21-7-41-16-60h-138c-9 19-14 40-16 60l0 0z m85-139c-29 19-51 44-67 75h133c-15-31-38-57-66-75l0 0z m32 149c3 0 5 1 8 3 1-1 2-1 4-1 4 0 9 3 11 8 2-1 4 0 6 1 4 2 6 7 5 12 0 0 0 1 0 1 4 4 4 10 0 14 0 0 0 0 0 0 1 1 2 3 2 4 0 3-4 5-7 5-3 0-6-2-6-5l0 0c-1 0-2-1-3-1-2-2-3-4-3-6 0 0-1 0-1 0-1-1-2-1-2-2-1 0-2 1-3 1-2 0-3-1-4-1-3 1-5 2-8 2-10-1-16-10-15-20 2-9 8-14 16-15l0 0z m-98 23c0 0 1 0 1 0-1-5 1-10 5-13 2-1 4-1 6-1 2-4 6-7 11-7 1 0 2 0 4 0 2-2 5-3 8-3 9 1 16 10 15 20-1 7-7 14-15 15-3 0-5-1-8-3-1 1-2 1-4 1-1 0-2 0-3 0 0 0-1 1-2 1 0 1-1 1-1 1 0 2-1 4-2 5-1 1-2 2-4 2l0 0c0 3-3 5-6 5-3 0-6-2-6-5 0-2 0-3 2-4 0 0-1 0-1-1-4-2-4-9 0-13z m67-89l7 11-2 5 6-1c0-3 2-5 4-6 2 0 4 0 6 0l2 3c-2 1-4 3-6 4-1 11-2 21-6 30-2 6-4 6-9 5-6-2-12-5-17-8l-1-8 4 0c0 0-2-9-3-12-1-3 0-3 1-4 3-1 5-2 8-2l-2-8 8-9z m-17 94c2-15 12-16 16-16 0-3-1-6-1-9l4-3c1 5 1 10 0 15 11 2 14 19 14 19-7-3-13-9-14-17 0 4-1 7-3 11 7 1 13 7 13 14 0 4-2 7-5 10l3 5-5-1-2 3-4-3-2 3-3-4-4 3 1-4c-7-4-10-12-7-19 2-4 6-7 11-8 2-3 3-8 3-12-3 6-9 11-15 13z m15 0c-3 0-6 6-6 13 0 8 3 14 6 14 4 0 6-6 6-14 0-7-2-13-6-13l0 0z m13-121c-2 3-2 6 0 9h-17c-2-3-2-6 0-9h17z m-17-21c-2-4-2-8 0-12h17c-1 4-1 8 0 12h-17z m21 12l4 6h-26l-3 3h-11l1-3h3l3-6h29z m-1-27h-22l-1 3h-6l2-4 4-2h23l4 2 1 4h-4l-1-3z m695 217c-25 24-59 37-93 37-81 0-128-60-127-133 0-63 37-124 127-124 31-1 61 10 84 30v70h-96v49h147v-141c-34-39-84-62-136-60-126 0-181 84-181 175 0 100 64 184 181 184 48 0 94-18 128-52l-34-35z m439-93c0-94-57-179-177-179s-177 87-177 178c0 105 74 182 178 182 119-1 176-88 176-181z m-177-128c86 0 122 61 122 127 0 63-36 130-121 131-80 0-123-56-123-131 1-61 37-127 122-127l0 0z m394-51h-60l-148 359h64l114-291 114 291h64l-148-359z m185 36c0-20-16-36-36-36-20 0-36 16-36 36 0 20 16 36 36 36 20 0 36-16 36-36z m349 15c-35-34-81-52-130-51-126 0-183 86-183 178-1 91 59 182 183 182 47 0 93-19 127-53l-37-35c-24 23-57 36-90 35-88 0-128-65-128-129 1-63 38-126 128-126 35 0 68 14 92 37l38-38z m400 127c0-93-57-178-177-178-119 0-176 87-176 178 0 105 73 181 177 181 118-1 176-88 176-181z m-177-127c86 0 122 60 122 126 0 64-37 130-121 131-80 0-122-55-122-131 1-61 36-126 121-126l0 0z" horiz-adv-x="2600" />

<glyph glyph-name="tramite_en_linea" unicode="&#xe8e1;" d="M500 846c-274 0-496-222-496-496s222-496 496-496 496 222 496 496-222 496-496 496z m-99-744l-248 248 70 70 178-178 376 377 70-71-446-446z" horiz-adv-x="1000" />

<glyph glyph-name="tramite_con_costo" unicode="&#xe8e2;" d="M612 334c-26 29-63 45-101 45h-42c-13 0-25 5-33 15-9 10-13 22-12 35 4 24 24 42 48 41h48c14 0 25-9 28-23 2-8 10-15 19-15h54c6 0 11 3 15 7 3 4 5 9 5 14-5 56-49 101-104 108v46c0 11-9 19-19 19 0 0 0 0 0 0h-53c-10 0-19-8-19-19 0 0 0 0 0 0v-47c-70-13-118-77-111-148 9-71 71-124 142-123h34c12 0 25-6 33-15 9-10 13-23 12-35-3-24-24-42-48-41h-49c-13 0-25 9-28 23-2 8-10 14-18 14h-55c-5 0-10-2-14-6-4-4-5-9-4-14 5-56 48-101 104-108v-46c0-10 8-19 19-19 0 0 0 0 0 0h53c11 0 19 9 19 19 0 0 0 0 0 0v48c60 12 105 60 112 120 3 38-9 77-35 105z" horiz-adv-x="1000" />

<glyph glyph-name="tramite_duracion" unicode="&#xe8e3;" d="M500 846c-274 0-496-222-496-496s222-496 496-496 496 222 496 496c0 274-222 496-496 496z m240-211l51 51c12 13 32 13 45 0 13-12 13-33 0-45l-51-51c-12-13-32-13-45 0-13 13-13 33 0 45l0 0z m-272 158c0 18 14 33 32 33s32-15 32-33v-72c0-18-14-32-32-32s-32 14-32 32v72z m-304-107c12 13 33 13 45 0 0 0 0 0 0 0l51-51c13-12 14-32 2-45-12-13-33-14-46-2 0 1-1 1-1 2l-51 51c-13 12-13 32 0 45 0 0 0 0 0 0z m-35-368h-72c-18-1-33 13-34 31 0 18 13 32 31 33 1 0 2 0 3 0h72c18 1 33-13 33-31 1-17-13-32-31-33 0 0-1 0-2 0z m131-253l-51-51c-12-13-33-13-45 0-13 12-13 33 0 45l51 51c12 13 33 13 45 0 13-12 13-33 0-45l0 0 0 0z m272-158c0-18-14-32-32-32-18 0-32 14-32 32v71c0 18 14 33 32 33 18 0 32-15 32-33v-71z m76 631l-78-200c-4-10-13-17-24-19l-194-39c-2-1-4-1-6-1-18 0-33 14-33 32 0 15 11 29 26 32l177 35 72 184c7 16 25 24 42 18 16-7 25-25 18-42l0 0 0 0z m228-524c-13-13-33-13-45 0l-51 51c-13 12-13 33 0 45 12 13 33 13 45 0l0 0 51-51c13-12 12-33 0-45 0 0 0 0 0 0z m107 304h-71c-18-1-33 13-34 31s13 32 31 33c1 0 2 0 3 0h71c18 1 33-13 34-31s-13-32-31-33c-1 0-2 0-3 0z" horiz-adv-x="1000" />

<glyph glyph-name="logo_govco_blanco" unicode="&#xe8e4;" d="M450 431l-32-12-3-8-7-5c-1 13-2 25-4 37l11 0 21 26-31-13-3-9-30-23c2-13 2-26 1-39l7 4c3-126-55-173-55-173-7 3-13 7-18 12 52 58 50 143 50 146l-6-4c1 13 2 27 1 40l-9-8c0 9-1 16-2 21 6 0 12 1 17 4 5 6 8 13 9 20 1 5 0 7-3 9-4 3-8 6-11 10 0 0 5 2 16-4 13-6 22-3 33 13l-13-2 1 9c0 0 1 0 1 0 3-2 7-3 11-4 3-1 3 0 4-2s4-1 5-1c0 0 7-4 10 0 1-1 3-1 4-2 2-1 4-1 7-2 1 0 3 0 4-1 5-2 8-1 8 0s-3 5-5 7c-2 2-3 2-5 3 1 0 0 1-1 3-2 2-5 4-8 5 0 2-6 6-10 9-4 3-3 3-7 7-10 9-21 18-32 26-18 14-37 25-58 33-14 7-30 7-44 0-7-4-9-12-6-19 2-5 4-10 7-14 2-4 1-4 0-4-1-1 0-2-1-2s-2-1-3-2c-1-1-2-2-4-2 0 1 0 2 1 3-2 1-3 1-4 1 0 1 1 1 1 1-1 0-3 0-4 0 0 1 1 1 1 1-3 1-5 0-7-2-1 2-2 4-4 5-2 2-3 4-5 6 1 2 1 3 1 5-2 2-4 4-6 4 1 1 1 2 1 3 0 1-2 2-3 2-2 0-4-1-5-2-1 0-2 0-3 0 3 6 0 14-6 17-14 7-30 7-44 0-21-8-40-20-58-33-11-8-22-17-32-26-4-5-3-4-7-7s-10-7-10-9c-3-1-5-3-8-5-1-2-2-3-1-3-2-1-3-2-5-3-2-2-6-6-5-7 0-1 3-2 8 0 1 1 3 1 4 1 3 1 5 1 7 2 2 1 3 2 4 2 3-4 10 0 10 0 2 0 3 0 5 1 2 1 2 1 4 2 4 1 8 2 11 4 0 0 1 0 1 0l1-9-13 2c10-16 20-19 33-13 11 6 16 4 16 4-3-4-7-7-11-10-3-2-4-4-3-9 1-7 4-14 9-20 5-3 11-4 17-4-1-5-1-12-2-21l-10 8c0-13 0-27 1-40l-5 4c0-3-3-88 50-146-5-5-12-9-19-12 0 0-57 48-54 173l6-4c0 13 0 26 1 39l-30 23-3 9-31 13 21-26 12 0c-3-12-4-24-4-37l-7 5-3 8-31 11 23-25 11 1c0 0-12-112 26-172 32-50 78-50 119-22-5-16-12-31-20-46 5 0 11 0 17-1 0 0-2-8-3-10-1-2 0-6 4-6s10 0 10 0-1-5-1-8c0-4-1-6 14-6 16 0 15 2 15 6 0 3-1 8-1 8s5 0 10 0c4 0 4 4 3 6s-2 10-2 10c5 1 11 1 17 1-8 15-15 30-21 46 42-28 88-27 119 22 38 60 27 172 27 172l11-1 22 25z m-182 43c1 6 2 11 3 10 1-1 3-1 4 0 1 1 1 1 2 0s4-3 6 1c3 4 2 2 3 1 0-2 2-2 4-1 2 2 4 3 5 4 2 0 2 0 3 2s2 2 2 3c0 1-1 2 0 3 2 0 2 1 4 0 1 0 1 1 2 0 0 0 1-1 2 0 0 0 0 0 0 0 1 1 2 2 3 1 1-2 3-2 3-1s1 1 2-1c1-1 3-2 5-2 0 0 2-3 4-2 3 0 4 1 4 3s-1 8 1 7 1-1 2 0c0 1 1 0 2 0 1 0 0 2 2 0 1-1 1-2 3-2 1-1 2-1 3-3 2-1 3-3 6-2 0 0 1-2 3-2 0 0 4-4 6-3 1-1 3-1 4-2 1 0 2 1 2 1 1-1 1 1 2 0s3-4 4-3c2-2 4-2 5-3 3 0 3-1 4-1s0 1 1 0c1-1 3-2 5-1 1 0 2 0 3 0 0 0 1 0 1 0-4-5-11-7-17-5-12 4-16 2-18 0-4-4-7-9-9-14-1-5 0-8 8-18-9 0-18 1-26 4-14 5-29 5-43 0-2-1-4-2-7-3-1 2-5 6-7 8 1 2 1 5 1 7 0 2 0 4-1 6-2 2-2 5-1 8l0 0z m60-49c-11-6-23-9-35-9-10 0-20 2-30 7 9 5 19 8 29 8 11 1 22-1 32-4l4-2z m-69 24l0 0c2-1 4-1 6-1 3-2 5-4 7-6-4-2-8-5-12-8-1 3-1 7-2 11 0 2 1 3 1 4l0 0z m-21 79c3-1 5-3 6-5 1-1 1-2 1-3-2 1-3 1-5 1-2 3-5 6-8 8 2 0 4 0 6-1l0 0z m-14 1c0 1 0 1 0 0 3-4 8-8 14-9-1-1-1-1-2-1-3 0-5 1-8 2-1 1-1 2-2 2-1 0 0 1-1 2-1 1-3 1-1 4z m-3-46c1-2 1-5 2-7 0 0 0-1-1-1 0 3-1 5-3 8 1 0 2 0 2 0z m-73-40c8 10 9 14 8 18-2 5-6 10-9 14-3 3-6 4-18 1-6-3-13-1-17 5 0 0 1 0 1 0 1 0 2 0 3-1 2 0 3 0 5 1 1 1 1 1 1 1s2 0 4 1c2 0 3 1 5 2 1 0 3 2 4 3 1 1 1 0 2 0 0 1 1 0 2 0 1 0 3 0 4 1 2 0 6 4 6 4 1 0 3 2 3 2 3-1 4 0 6 2 1 1 2 2 3 2 2 1 2 1 3 3 2 1 2 0 2 0s2 1 2 0c1-1 1-2 2-1 2 2 1-4 1-6 0-2 1-3 4-4 2 0 4 3 4 3 2-1 4 0 5 2 1 1 1 1 2 0 0-1 2 0 3 1 1 2 2 0 3 0 0-1 1-1 2-1 0 0 0 0 0 1 1 1 1-1 3 0s2 0 3-1 1-2 1-3c0-1 1-1 2-3 1-1 1-1 2-2 2-1 4-2 5-3 1-1 3-1 4 0 0 0 1 0 1 0 0-1 0-3 1-3l0 0c1 0 1 1 2 2 0-1 1 0 2-1-3-6-3-14 1-20l0 0c0 0 0 1 1 1 0-2 0-5 0-7-2-3-3-7-5-10-13 5-28 5-42-1-9-1-18-3-27-3z m64-12c-2-6-4-11-7-15-12 0-23 3-32 9l3 1c10 4 21 6 32 5 1 0 2 0 4 0z m-50-8c2 0 3 1 4 1 11-10 25-15 39-14 16-1 32 4 45 14 12-10 28-15 44-14 15-1 29 4 39 14 2-1 3-1 4-1 2-24 1-48-2-71h-171c-3 23-4 47-2 71z m3-77h170c-2-21-7-41-16-60h-138c-9 19-14 40-16 60l0 0z m85-139c-29 19-51 44-67 75h133c-15-31-38-57-66-75l0 0z m32 149c3 0 5 1 8 3 1-1 2-1 4-1 4 0 9 3 11 8 2-1 4 0 6 1 4 2 6 7 5 12 0 0 0 1 0 1 4 4 4 10 0 14 0 0 0 0 0 0 1 1 2 3 2 4 0 3-4 5-7 5-3 0-6-2-6-5l0 0c-1 0-2-1-3-1-2-2-3-4-3-6 0 0-1 0-1 0-1-1-2-1-2-2-1 0-2 1-3 1-2 0-3-1-4-1-3 1-5 2-8 2-10-1-16-10-15-20 2-9 8-14 16-15l0 0z m-98 23c0 0 1 0 1 0-1-5 1-10 5-13 2-1 4-1 6-1 2-4 6-7 11-7 1 0 2 0 4 0 2-2 5-3 8-3 9 1 16 10 15 20-1 7-7 14-15 15-3 0-5-1-8-3-1 1-2 1-4 1-1 0-2 0-3 0 0 0-1 1-2 1 0 1-1 1-1 1 0 2-1 4-2 5-1 1-2 2-4 2l0 0c0 3-3 5-6 5-3 0-6-2-6-5 0-2 0-3 2-4 0 0-1 0-1-1-4-2-4-9 0-13z m67-89l7 11-2 5 6-1c0-3 2-5 4-6 2 0 4 0 6 0l2 3c-2 1-4 3-6 4-1 11-2 21-6 30-2 6-4 6-9 5-6-2-12-5-17-8l-1-8 4 0c0 0-2-9-3-12-1-3 0-3 1-4 3-1 5-2 8-2l-2-8 8-9z m-17 94c2-15 12-16 16-16 0-3-1-6-1-9l4-3c1 5 1 10 0 15 11 2 14 19 14 19-7-3-13-9-14-17 0 4-1 7-3 11 7 1 13 7 13 14 0 4-2 7-5 10l3 5-5-1-2 3-4-3-2 3-3-4-4 3 1-4c-7-4-10-12-7-19 2-4 6-7 11-8 2-3 3-8 3-12-3 6-9 11-15 13z m15 0c-3 0-6 6-6 13 0 8 3 14 6 14 4 0 6-6 6-14 0-7-2-13-6-13l0 0z m13-121c-2 3-2 6 0 9h-17c-2-3-2-6 0-9h17z m-17-21c-2-4-2-8 0-12h17c-1 4-1 8 0 12h-17z m21 12l4 6h-26l-3 3h-11l1-3h3l3-6h29z m-1-27h-22l-1 3h-6l2-4 4-2h23l4 2 1 4h-4l-1-3z m695 217c-25 24-59 37-93 37-81 0-128-60-127-133 0-63 37-124 127-124 31-1 61 10 84 30v70h-96v49h147v-141c-34-39-84-62-136-60-126 0-181 84-181 175 0 100 64 184 181 184 48 0 94-18 128-52l-34-35z m439-93c0-94-57-179-177-179s-177 87-177 178c0 105 74 182 178 182 119-1 176-88 176-181z m-177-128c86 0 122 61 122 127 0 63-36 130-121 131-80 0-123-56-123-131 1-61 37-127 122-127l0 0z m394-51h-60l-148 359h64l114-291 114 291h64l-148-359z m185 36c0-20-16-36-36-36-20 0-36 16-36 36 0 20 16 36 36 36 20 0 36-16 36-36z m349 15c-35-34-81-52-130-51-126 0-183 86-183 178-1 91 59 182 183 182 47 0 93-19 127-53l-37-35c-24 23-57 36-90 35-88 0-128-65-128-129 1-63 38-126 128-126 35 0 68 14 92 37l38-38z m400 127c0-93-57-178-177-178-119 0-176 87-176 178 0 105 73 181 177 181 118-1 176-88 176-181z m-177-127c86 0 122 60 122 126 0 64-37 130-121 131-80 0-122-55-122-131 1-61 36-126 121-126l0 0z" horiz-adv-x="2600" />

<glyph glyph-name="uniE900" unicode="&#xe900;" d="M707 307h-164v-164q0-18-13-30t-30-13-30 13-13 30v0 164h-164q-18 0-30 13t-13 30 13 30 30 13v0h164v164q0 18 13 30t30 13 30-13 13-30v0-164h164q18 0 30-13t13-30-13-30-30-13v0 0z" horiz-adv-x="1000" />

<glyph glyph-name="uniE901" unicode="&#xe901;" d="M500 767q-86 0-162-33-76-32-133-89t-89-133q-33-76-33-162t33-162q32-76 89-133t133-89q76-33 162-33t162 33q76 32 133 89t89 133q33 76 33 162v0q0 86-33 162-32 76-89 133t-133 89q-76 33-162 33v0 0z m-1-683q-18 0-30 14t-13 30q0 19 13 32t31 12q18 0 31-12t13-32v0-1 1q-1-18-14-31t-30-13h0-1v0 0z m45 225v0-1q0-18-13-31t-31-13q-4 0-8 1l-8 2v0q-11 5-19 15t-9 24v0 268q1 17 14 29t30 13q17 0 29-12t14-28v-1q1-34 1-67t-1-68v0q1-32 1-65v-66 0z" horiz-adv-x="1000" />

<glyph glyph-name="uniE902" unicode="&#xe902;" d="M707 307h-164v-164q0-18-13-30t-30-13-30 13-13 30v0 164h-164q-18 0-30 13t-13 30 13 30 30 13v0h164v164q0 18 13 30t30 13 30-13 13-30v0-164h164q18 0 30-13t13-30-13-30-30-13v0 0z" horiz-adv-x="1000" />

<glyph glyph-name="uniE903" unicode="&#xe903;" d="M497 86q-17 0-30 13t-13 31q0 18 13 31t31 13q18 0 31-13t13-31v-1 0 0q-1-17-14-30t-30-13h0-1v0 0z m45 225v-1 0q0-19-13-31t-31-13q-4 0-8 1t-7 2v0q-12 4-20 15t-8 24v0 268q1 17 13 29t30 12 30-12 14-28v0-68-67 0-66-65 0z" horiz-adv-x="1000" />

<glyph glyph-name="uniE904" unicode="&#xe904;" d="M500 767v0 0q-86 0-162-33-76-32-133-89t-89-133q-33-76-33-162 0-54 13-103t37-94l-1 2 224 222q0 1 1 2t2 0 2 0 2-2v0l127-125q1-1 2-1t2-1 2 1 2 1l201 201h-52q-11 1-19 8t-8 19 8 18 19 9v0h139q2 0 4-1t2-5v0 0 0-138q0-11-8-19t-19-8q-12 0-20 8t-8 19v0 52l-240-241q0-1-1-1t-3-1-2 1-2 1v0l-126 128q-1 0-2 1t-2 0-2 0-1-1l-195-194q29-40 66-72 37-33 80-55t92-35 101-13q86 0 162 33 76 32 133 89t89 133q33 76 33 162t-33 162q-32 76-89 133t-133 89q-76 33-162 33v0 0 0 0z" horiz-adv-x="1000" />

<glyph glyph-name="uniE905" unicode="&#xe905;" d="M686 546v0q0-10 8-18t19-8v0h53l-201-201q-1-1-2-2t-2 0-2 0-2 2v0l-127 125q0 1-1 1t-2 1q-2 0-3-1t-1-1v0l-273-272q-3-4-6-8t-2-10q0-6 2-11t6-9v0q3-4 9-6t10-2q6 0 11 2t9 6v0l234 235q0 1 1 1t3 1q1 0 2-1t1-1v0l127-128 1-1t3 0q1 0 2 0t2 1v0l239 240v-51q0-12 8-19t19-8v0 0 0q12 0 20 8t7 19v139 0 0q0 2-1 3t-4 2h-140v0 0q-11 0-19-8t-8-20v0 0 0 0z" horiz-adv-x="1000" />

<glyph glyph-name="uniE906" unicode="&#xe906;" d="M500 767q-86 0-162-33-76-32-133-89t-89-133q-33-76-33-162t33-162q32-76 89-133t133-89q76-33 162-33t162 33q76 32 133 89t89 133q33 76 33 162v0q0 86-33 162-32 76-89 133t-133 89q-76 33-162 33v0 0z m-9-117h18q2 0 3-1t1-4v-13-13-13-12q0-3-1-4t-3-1h-5-4-4-5v0q-2 0-3 1t-1 4v26 25q-1 3 0 4t4 1v0z m-228-300q-2-3-8-2t-11 1h-19-20q-3 0-4 1t-1 4v4 4 4 5-1q0 3 1 3t4 1h14 13 14 13q3 0 4-1t1-3q0-5 0-11t-1-9v0z m59 165q-3 0-6 4t-6 8q-7 7-14 13t-14 13q-3 2-3 4t3 3q4 4 8 8t7 6q4 0 7-5t8-8q6-7 13-13t13-12q1-1 2-2t1-2l-2-2t-3-2q-3-4-6-9t-8-4v0z m305-235q-21-22-33-51t-12-62v-2-2 1-32-31 0-2q0-19-14-34t-35-14v0 0 0h-16-17v0h-17-16q-20 0-34 14t-14 34v1 0 0 63 2 0q0 34-12 62t-32 51v0q-20 21-32 50t-12 59q0 2 1 5t0 5v-1q1 38 19 70t47 51l1 1q21 15 47 23t54 9q46 0 84-22t62-58v-1q11-17 17-38t6-44q0-31-11-58t-31-49v0 0z m79 262l-26-25q-1-1-2-1t-2-2q-1 1-3 2t-2 3q-3 3-7 6t-5 7 5 7 7 6q7 6 14 13t14 14q2 2 3 2t3-2q4-4 7-8t8-7q-3-4-7-7t-7-8v0z m73-193h-19-20q-3 0-4 1t-1 4q0 2 1 4t0 4 0 4-1 5v-1q0 3 2 3t3 1h14 14 13 14q3 0 4-1t1-3q0-5 0-11t-2-9q-2-3-8-2t-11 1v0z m-339 163q-67-31-81-97t33-118q24-26 39-61t14-73v-2-2 0q0-4 1-5t4-1h26 25 24 26q4 0 5 1t1 6v2 3q0 10 1 20t3 18l-1-1q5 28 18 52t30 42v0q17 18 27 41t10 49q0 22-7 41t-17 34v0q-19 30-51 47t-69 17q-17 0-32-4t-29-10l0 1v0z" horiz-adv-x="1000" />

<glyph glyph-name="uniE907" unicode="&#xe907;" d="M676 514q-1 1-3 2t-2 2q-3 4-7 7t-5 7 5 7 7 5q7 7 14 14t14 14q2 2 3 2t3-2q4-4 7-8t8-8l-7-7-7-7-26-25q-1-1-2-1t-2-2v0z m-335 18q-1-1-2-3t-3-2q-3-3-6-8t-8-4q-3 0-6 4t-6 8q-7 7-14 13t-14 13q-3 2-3 4t3 3q4 4 8 8t7 6q4 0 7-5t8-8q6-7 13-13t13-12l2-2t1-2v0z m-109-158h14 13q3 0 4-1t1-3q0-5 0-11t-1-9q-3-3-9-2t-10 1h-19-20q-3 0-4 1t-1 4v4 4 4 5-1q0 3 1 3t4 1h14 13v0z m536 0h13 14q3 0 4-1t1-3q0-5 0-11t-2-9q-2-4-8-2t-11 1h-19-20q-3 0-4 1t-1 4q0 2 1 4t0 4 0 4-1 5v-1q0 3 2 3t3 1h14 14v0z m-255 245v-13-13q0-2-1-3t-4-2q-2 1-4 1h-4-5t-4-1v0q-3 0-4 2t-1 3v26 26q0 3 1 4t4 1h17q3 0 4-1t1-4v-13-13 0z m133-150q-23 37-61 59t-85 22q-28 0-54-9t-48-24l1 1q-29-20-47-52t-20-70v0-4-5q0-32 11-60t32-49v0q21-22 32-51t12-61v-2-2 1-63 0-1q0-20 14-34t34-15v0h16 17v0h17 16v0 0q21 0 35 14t14 35v1 1 0 31 31 2 2q0 33 12 61t33 52v0q20 20 31 48t12 59q0 23-6 44t-18 39v-1 0z m-39-173q-17-18-30-42t-17-50v-2q-2-8-3-17t-1-19v-3-3 0q0-4-1-5t-5-1h-25-25-25-25q-4 0-5 1t-1 4v2 3q0 39-14 73t-38 60v0q-46 51-33 118t81 97q14 6 29 9t32 4q37 0 68-17t51-46v-1q12-15 18-34t6-40q0-26-10-49t-27-42v0 0z" horiz-adv-x="1000" />

<glyph glyph-name="uniE908" unicode="&#xe908;" d="M499 767q-86 0-162-33-75-33-132-90t-89-132q-33-76-33-162t33-162q32-76 89-133t133-89q76-33 162-33t162 33q76 32 133 89t89 133q33 76 33 162t-33 162q-32 76-89 132t-132 90q-76 33-162 33v0h-2z m185-555q6-4 9-10t3-16q0-14-9-23t-24-10q-8 0-15 3t-11 10v0l-138 137-137-137q-5-6-11-10t-15-3q-14 0-23 10t-10 23q0 9 3 16t9 10v0l137 138-137 138q-2 4-4 9t-2 10q0 15 9 25t24 9q6 0 11-1t9-6v1l137-138 138 137q5 6 11 10t15 3q14 0 24-9t9-24q0-9-3-16t-9-10v0l-138-138z" horiz-adv-x="1000" />

<glyph glyph-name="uniE909" unicode="&#xe909;" d="M752 517l-122 121q-1 2-3 3t-5 1h-316q-26 0-43-18t-18-43v-461q0-26 18-44t43-18h388q26 0 43 18t18 44v388q0 3-1 5l-2 4v0 0z m-90-322q-3-2-6-4t-6-1q-3 0-6 1t-5 4v0l-78 78q-16-14-37-22t-43-7q-53 0-90 37t-37 89q0 52 37 89t90 38q51 0 88-38t37-89q0-21-6-39t-17-35v0l79-78q2-3 4-6t1-6q0-3-1-6t-4-5v0 0z m-4 313v0 0q-14 0-25 11t-11 25v69l104-105h-68z m-86-124q6-38-16-69t-61-38q-38-6-69 16t-37 61q-7 38 15 69t61 37q38 7 69-16t38-60v0z" horiz-adv-x="1000" />

<glyph glyph-name="uniE90A" unicode="&#xe90a;" d="M500 767q-86 0-162-33-76-32-133-89t-89-133q-33-76-33-162t33-162q32-76 89-133t133-89q76-33 162-33t162 33q76 32 133 89t89 133q33 76 33 162v0q0 86-33 162-32 76-89 133t-133 89q-76 33-162 33v0 0z m267-461q0-31-21-54t-53-24v0q-3-47-22-72t-38-36q-11-6-23-11t-25-6h-1q-4-16-17-26t-31-10v0 0h-36q-20 0-35 14t-15 36 15 35 35 14v0h36v0 0q17 0 29-9t18-25v0q19 3 48 22t33 74h-19q-6 0-11 4t-4 11v0 0 0 161 0 0q0 6 4 10t11 4h20v22q0 70-44 118t-112 47h-18q-67 0-112-47t-44-118v-22h21q5 0 9-4t4-10v0 0 0-161q0-6-4-11t-9-4h-44q-33 0-56 23t-23 55v34q0 31 21 53t52 25h1v22 1 1q0 39 13 74t38 61v0q25 26 59 41t72 15h2 1-1 19 0 2q39 0 73-15t58-41v0q24-27 38-61t14-74v-1-1 0-22q31-3 51-25t21-53v0 0 0-34z" horiz-adv-x="1000" />

<glyph glyph-name="uniE90B" unicode="&#xe90b;" d="M773 446v30 2 2q0 55-20 103t-53 85v0q-35 38-82 59t-102 21h-2-1v0h-25-1-2q-54 0-102-21t-82-59v0q-34-37-54-85t-19-103v-2-2 0-30q-43-3-73-35t-30-75v-47q0-46 32-79t77-32h63q8 0 14 6t5 15v227q0 8-5 14t-14 6h-29v30q0 50 16 92 17 43 47 74t69 49 87 17h26q47 0 87-17t69-49 46-74q16-42 16-92v-30h-28q-8 0-13-6t-6-14v-227q0-9 6-15t13-6h28q-5-78-47-104t-67-31q-7 22-25 36t-41 13v0 0h-51q-29 0-50-20t-20-50 20-50 50-20h50q24 0 43 14t25 36v1q19 3 36 9t34 15h-1q27 15 53 51t32 100q43 3 73 35t30 76v47 0 0q0 43-30 75t-72 35h0v0z" horiz-adv-x="1000" />

<glyph glyph-name="uniE90C" unicode="&#xe90c;" d="M297 467q1-5 5-8t10-3v0 0h79v0 0q6 0 10 4t4 10v0 0 0 1l-7 72q0 6-4 10t-10 4v0 0h-84q-7 0-11-4t-5-12v0-1 0z m144-11h80v0 0q6 0 10 4t5 10v0l-1 71q0 7-4 11t-10 4h-85v0 0q-6 0-11-4t-4-11v0 0-1l6-71q0-6 4-10t10-3v0 0 0 0z m131 0h79q6 0 10 3t5 10v0l6 71v1 0q0 6-4 11t-10 4v0h-86q-6 0-10-4t-4-11v0l-1-71v0 0q0-6 4-10t11-4v0 0 0 0z m221 101h-84q-6 0-10-4t-5-10v0l-6-72v0-2q0-6 3-10t10-4v0h80v0 0q6 0 10 3t5 9v0l13 73v0 1q0 6-4 10t-9 5v0l-1 1-1 0v0h-1v0z m-472-128q-6 0-11-4t-4-10v0-1 0-1-1 0l9-56q1-5 6-9t9-4h70 1 0q6 0 11 5t4 11v0 0 0 0 0 0 1 0l-6 56q0 5-4 9t-10 4v0h-75z m201 0h-76q-6 0-10-4t-4-10v0-1 0l4-57q1-6 5-10t9-4h72v0 0q5 0 10 5t4 11v0 0 0 56q0 5-4 10t-10 4v0 0 0 0z m49-86h71q6 0 10 4t4 10v0l5 57v0 1q0 5-4 10t-9 4v0h-77v0 0q-6 0-10-4t-4-10v-56 0 0q0-7 4-11t10-5v0 0z m201 86h-75q-6 0-10-4t-5-9v0l-5-56v-1-1q0-6 4-10t9-5v0h72v0 0q6 0 10 4t4 9v0l10 56v1 2q0 4-3 9t-9 5v0h-2z m-433-107q-6 0-10-5t-5-10v0-1-1 0-1 0l8-44q1-6 5-9t10-3v0 0h63v0 0q6 0 10 4t5 10v0 0 0 2l-4 44q-1 6-5 10t-10 4v0h-67z m183 0h-67q-6 0-10-5t-5-10v-2l4-44q0-6 4-10t10-3v0h65v0 0q5 0 10 4t4 10v44 1 0q0 6-4 10t-10 5h-1 0v0 0z m48-74h64v0 0q6 0 10 3t5 10v0l3 44v1 1q0 6-4 10t-9 5v0h-69q-5 0-10-5t-4-10v0-45 0 0q0-6 4-10t10-4v0 0 0 0z m113 0h63v0 0q6 0 10 3t5 9v0l8 44v2 1q0 5-4 9t-9 6v0h-1 0-1 0v0h-67v0 0q-6 0-10-4t-5-10v0l-4-44v0-2q0-5 4-9t9-5v0h2z m76-14h-436v0 0q-1 0-1 0t-2 1v0l-59 314q-2 7-8 12t-13 5v0 0h-72v0 0q-4 0-6-3t-3-7q0-3 2-5t6-4v0h73v0 0q1 0 2 0t0-2v0l61-313q1-7 7-12t12-5v0 0h437 1 1v0q2-2 3-4t1-5q0-2-1-5t-3-4v0q-2-2-5-3t-4-1h-438v0h-1q-3 0-6-3t-3-6v0 0 0q0-4 2-6t7-3v0h7q-1-3-1-6t-1-5q0-12 9-21t21-9q9 0 17 5t10 13v1q1 2 2 5t0 6 0 5-2 5v0h328q-1-2-1-5t-1-5q0-12 9-21t21-9q8 0 16 6t10 13v0q1 2 2 5t1 6-1 5l-2 6v0q12 2 18 10t7 21v2 3 0q-1 5-3 9t-6 8v0q-1 2-5 4t-8 2h-1 0v0 0z" horiz-adv-x="1000" />

<glyph glyph-name="uniE90D" unicode="&#xe90d;" d="M500 767q-86 0-162-33-76-32-133-89t-89-133q-33-76-33-162t33-162q32-76 89-133t133-89q76-33 162-33t162 33q76 32 133 89t89 133q33 76 33 162v0q0 86-33 162-32 76-89 133t-133 89q-76 33-162 33v0 0z m120-673q-37 0-63 26t-26 63v0q0 8 2 15t4 14h-1l-136 77q-11-17-30-26t-40-10q-37 0-63 26t-26 63q0 36 26 62t63 26q22 0 40-9t30-25v0l136 75q-2 7-3 14t-2 15v0 0 0 0 1q0 37 26 62t63 26 63-26 26-62q0-37-26-63t-63-25q-21 0-40 9t-30 25v0l-136-75q2-7 4-15t1-14v-1-1 0q0-8-1-15t-5-14l1 1 136-76q13 15 31 25t39 9q37 0 63-26t26-62q0-37-26-63t-63-26v0 0 0 0z" horiz-adv-x="1000" />

<glyph glyph-name="uniE90E" unicode="&#xe90e;" d="M671 268q-25 0-47-11t-35-30v0l-160 90q3 8 4 16t2 18v0 0 0 0 0q0 10-2 19t-4 16v-1l159 89q15-18 36-29t47-11q43 0 73 30t30 74-30 73-73 31-74-31-31-73v0 0 0 0 0q0-10 2-19t5-17l-1 1-159-89q-15 18-36 29t-46 12q-43 0-74-31t-30-73 30-74 74-30q25 0 46 11t36 30v0l160-89q-3-8-5-17t-2-18v0q0-43 31-74t74-30 73 30 30 74-30 73-73 31v0 0z" horiz-adv-x="1000" />

<glyph glyph-name="uniE90F" unicode="&#xe90f;" d="M500 767q-86 0-162-33-76-32-133-89t-89-133q-33-76-33-162t33-162q32-76 89-133t133-89q76-33 162-33t162 33q76 32 133 89t89 133q33 76 33 162v0q0 86-33 162-32 76-89 133t-133 89q-76 33-162 33v0 0z m182-374l-170-176q-2-2-5-3t-7-2-7 2-5 3v0l-170 176q-2 2-3 5t0 7q0 7 4 11t12 5v0 0h338v0 0q7 0 12-5t5-11q0-3-1-7t-3-5v0 0z" horiz-adv-x="1000" />

<glyph glyph-name="uniE910" unicode="&#xe910;" d="M500 767q-86 0-162-33-76-32-133-89t-89-133q-33-76-33-162t33-162q32-76 89-133t133-89q76-33 162-33t162 33q76 32 133 89t89 133q33 76 33 162v0q0 86-33 162-32 76-89 133t-133 89q-76 33-162 33v0 0z m170-576q-3-3-6-6t-6-5l-8-8-7-7v-1q-9-10-22-16t-28-6h-1 0v0h-6q-21 2-41 8t-38 15l2 0q-41 20-75 47t-63 60v1q-21 23-38 51t-28 58l-1 3q-6 13-9 28t-3 30v4 4-1q1 12 6 23t14 18l30 30q6 6 13 9t16 5h1q8-1 16-5t13-9v0q4-4 9-8t8-9l4-4 4-3 24-24q6-6 10-14t4-17q0-9-4-17t-10-13v0l-8-7q-4-6-9-11t-11-10q6-11 12-20t12-18v1q15-19 33-36t39-29l1-1 4-2t3-3l7-3 29 27q4 6 13 10t17 4v0q9 0 16-4t13-10v0l48-49q7-5 10-13t4-17v0q0-9-4-16t-9-14v0 0z m20 325l-114-114h88 2 2q7 0 12-5t5-12-5-12-12-4h-2t-2 1v0h-131q-7 0-11 4t-5 12v0 131q0 7 5 12t11 5 12-5 5-12v0-89l114 114q3 3 6 5t9 2q7 0 12-5t5-13q0-4-1-8t-5-6v0-1z" horiz-adv-x="1000" />

<glyph glyph-name="uniE911" unicode="&#xe911;" d="M711 591h-54v43 0 0q0 3-2 5t-5 3v0h-274q-4 0-6-2t-3-6v-127h-81q-4 0-6-2t-2-6v0-403q0-3 2-5t6-3v0h80v-19 0-1t1-3 3-3v0q1 0 2-1t3 0h274v0 0q3 0 5 1t3 4v0 0 2 0h54q3 0 5 2t2 5v0 509q0 3-2 5t-5 2v0 0z m-231-32v23 1 0q0 3 2 6t6 2v0 0h48q3 0 6-2t2-6v0-47q0-3-2-6t-6-2v0h-48q-3 0-5 2t-2 6v0z m0-83v23q0 3 2 6t6 2v0h24 23q4 0 7-2t2-6v0-47q0-3-2-6t-7-2v0h-47q-3 0-5 2t-2 6v0z m0-83v22q0 4 2 7t6 2v0h48q3 0 6-2t2-7v0-46q0-4-2-7t-6-2v0h-48q-3 0-5 2t-2 7v0z m0-58q0 4 2 7t6 2v0h48q3 0 6-2t2-7v0-47q0-4-2-7t-6-2v0h-48q-3 0-5 2t-2 7v0z m-160-203q0-1-1-1t-2-1h-16v0 0l-1 1t-1 1v17q0 1 1 1l1 1v0h16q1 0 2-1t1-1v0 0 0-17z m0 42v0 0q0-1-1-1t-2-1h-16l-1 1t-1 1v0 17q0 1 1 1l1 1v0h16q1 0 2-1t1-1v0 0 0-17z m0 42v0 0q0-1-1-1t-2-2h-16l-1 1t-1 2v0 18l1 1 1 1v0h16q1 0 2-1l1-1v0 0 0-18z m0 41v0 0q0-1-1-1t-2-1h-16l-1 1t-1 1v0 18q0 1 1 1l1 1v0 0h16q1 0 2-1t1-1v0-18z m0 42v0 0q0-1-1-1t-2-1h-16l-1 1t-1 1v0 18q0 1 1 1l1 1v0h16q1 0 2-1t1-1v0 0 0-18z m0 42q0-1-1-1t-2-1v0h-16v0 0l-1 1t-1 1v18l1 1 1 1v0h16q1 0 2-1l1-1v0 0 0-18z m0 41v0 0q0-1-1-1t-2-1h-16l-1 1t-1 1v0 18q0 1 1 1l1 1v0h16q1 0 2-1t1-1v0 0 0-18z m0 42v0 0q0-1-1-1t-2-1h-16l-1 1t-1 1v0 17q0 1 1 1l1 1v0h16q1 0 2-1t1-1v0 0 0-17z m0 42v0 0q0-1-1-1t-2-2h-16l-1 1t-1 2v0 17q0 1 1 1l1 1v0 0h16q1 0 2-1t1-1v0-17z m41-335q0-1 0-1t-2-1v0 0h-16v0 0q-1 0-2 1t0 1v17q0 1 0 1t2 1v0h16q1 0 2-1t0-1v0-17z m0 41l0-1t-2-1v0h-16q-1 0-2 1l0 1v0 17q0 1 0 2t2 1v0h16q1 0 2-1t0-2v0-17z m0 42q0-1 0-1t-2-1v0h-16q-1 0-2 1t0 1v0 20l0 1t2 1v0h16q1 0 2-1l0-1v0-20z m0 42q0-1 0-1t-2-1v0h-16q-1 0-2 1t0 1v0 19q0 1 0 1t2 1v0 0h16v0 0q1 0 2-1t0-1v0-19z m0 41l0-1t-2-1h-16q-1 0-2 1l0 1v20q0 1 0 1t2 1h16q1 0 2-1t0-1v0-20z m0 42q0-1 0-1t-2-1v0 0h-16v0 0q-1 0-2 1t0 1v20l0 1t2 1v0h16q1 0 2-1l0-1v0-20z m0 42q0-1 0-1t-2-1v0h-16q-1 0-2 1t0 1v0 19q0 1 0 1t2 1v0h16q1 0 2-1t0-1v0-19z m0 41l0-1t-2-1v0h-16q-1 0-2 1l0 1v0 17q0 1 0 2t2 1v0h16q1 0 2-1t0-2v0-17z m0 42q0-1 0-1t-2-1v0h-16q-1 0-2 1t0 1v0 17q0 1 0 1t2 1v0 0h16v0 0q1 0 2-1t0-1v0-17z m103-258q0-2-3-5t-6-2v0h-47q-4 0-6 2t-3 5v0 48q0 3 3 6t6 2v0h47q4 0 6-2t3-6v0-48z m0 82q0-4-3-7t-6-2v0h-47q-4 0-6 2t-3 7v0 46q0 4 3 7t6 2v0h47q4 0 6-2t3-7v0-46z m0 81q0-4-3-7t-6-2v0h-47q-4 0-6 2t-3 7v0 46q0 4 3 7t6 2v0h47q4 0 6-2t3-7v0-46z m0 83q0-4-3-7t-6-2v0h-47v0 0q-4 0-6 2t-3 7v0 0 0 47q0 3 3 6t6 2v0h24 23q4 0 6-2t3-6v0-47z m0 84q0-4-3-7t-6-2v0h-47q-4 0-6 2t-3 7v0 47q0 3 3 6t6 2v0h47q4 0 6-2t3-6v0-47z m40-461h-32v63h32v-63z m-16 123q-3 0-5 2t-2 6v0 48q0 3 2 6t5 2v0h48q3 0 6-2t2-6v0-48q0-2-2-5t-6-2v0h-48v-1z m65-123h-32v63h32v-63z m72 131q0-2-2-5t-7-2v0h-47q-4 0-6 2t-2 5v0 48q0 3 2 6t6 2v0h47q4 0 7-2t2-6v0-48z m0 82q0-4-2-7t-7-2v0h-47q-4 0-6 2t-2 7v0 46q0 4 2 7t6 2v0h47q4 0 7-2t2-7v0-46z m0 81q0-4-2-7t-7-2v0h-47q-4 0-6 2t-2 7v0 46q0 4 2 7t6 2v0h47q4 0 7-2t2-7v0-46z m0 83q0-4-2-7t-7-2v0h-47q-4 0-6 2t-2 7v0 47q0 3 2 6t6 2v0h47q4 0 7-2t2-6v0-47z m0 83q0-3-2-6t-7-2v0h-47q-4 0-6 2t-2 6v0 48q0 3 2 6t6 2v0h47q4 0 7-2t2-6v0-48z m71-445q0-1 0-1t-2-1v0h-16q-1 0-2 1t0 1v0 17q0 1 0 1t2 1v0h16q1 0 2-1t0-1v0-17z m0 41q0-1 0-1t-2-1v0 0h-16v0 0q-1 0-2 1t0 1v17q0 1 0 2t2 1v0h16q1 0 2-1t0-2v0-17z m0 42q0-1 0-1t-2-1v0h-16q-1 0-2 1t0 1v0 17q0 1 0 1t2 1v0h16q1 0 2-1t0-1v0-17z m0 42q0-1 0-1t-2-1v0h-16q-1 0-2 1t0 1v0 19l0 1t2 1v0h16q1 0 2-1l0-1v0-19z m0 41q0-1 0-1t-2-1v0h-16q-1 0-2 1t0 1v0 19q0 1 0 1t2 1v0 0h16v0 0q1 0 2-1t0-1v0-19z m0 42q0-1 0-1t-2-1v0h-16q-1 0-2 1t0 1v0 19q0 1 0 1t2 1v0h16q1 0 2-1t0-1v0-19z m0 42q0-1 0-1t-2-1v0 0h-16v0 0q-1 0-2 1t0 1v19l0 1t2 1v0h16q1 0 2-1l0-1v0-19z m0 41q0-1 0-1t-2-1v0h-16q-1 0-2 1t0 1v0 19q0 1 0 1t2 1v0h16q1 0 2-1t0-1v0-19z m0 42q0-1 0-1t-2-1v0h-16q-1 0-2 1t0 1v0 17q0 1 0 1t2 1v0h16q1 0 2-1t0-1v0-17z m0 42q0-1 0-1t-2-1v0h-16q-1 0-2 1t0 1v0 17q0 1 0 1t2 1v0 0h16v0 0q1 0 2-1t0-1v0-17z m0 41q0-1 0-1t-2-1v0 0h-16v0 0q-1 0-2 1t0 1v17q0 1 0 2t2 1v0h16q1 0 2-1t0-2v0-17z m0 42q0-1 0-1t-2-1v0h-16q-1 0-2 1t0 1v0 17q0 1 0 1t2 1v0h16q1 0 2-1t0-1v0-17z" horiz-adv-x="1000" />

<glyph glyph-name="uniE912" unicode="&#xe912;" d="M500 767q-86 0-162-33-76-32-133-89t-89-133q-33-76-33-162t33-162q32-76 89-133t133-89q76-33 162-33t162 33q76 32 133 89t89 133q33 76 33 162v0q0 86-33 162-32 76-89 133t-133 89q-76 33-162 33v0 0z m286-365l-131-129 32-181q1-1 1-1v-2 0-1 0q0-6-5-10t-12-5v0 0 0q-2 0-4 0t-3 2v0l-163 85-163-86q-1-1-3-2t-4 0v0 0 0q-3 0-5 1t-5 2v0q-3 3-5 6t-1 7v1 2 0l31 181-133 128q-2 2-3 5t-2 7q0 2 1 3t0 1v0q2 5 5 8t8 4v0l182 27 81 165q2 3 6 6t8 2q5 0 9-2t6-6v0l82-165 182-26q4-1 8-4t5-7v0q0-2 1-3t0-2q0-3-1-6t-5-5v0 0z" horiz-adv-x="1000" />

<glyph glyph-name="uniE913" unicode="&#xe913;" d="M791 418q-2 4-5 7t-8 4v0l-182 26-82 165q-2 3-6 6t-9 2v0 0 0q-4 0-8-2t-6-6v0l-81-165-182-28q-4-1-8-4t-5-7v0q0-1 0-2t-1-2q0-4 2-7t3-5v0l133-128-31-182v-1-1q0-4 1-7t5-6v0q2-1 5-2t5-1v0 0 0q2 0 4 0t4 2h-1l163 86 163-85q1-1 3-2t4 0v0 0 0q7 0 12 5t5 10v0 1 0 2t-1 1v0l-32 181 131 129q3 2 5 5t1 6q0 2 0 3t-1 2v0 0z" horiz-adv-x="1000" />

<glyph glyph-name="uniE914" unicode="&#xe914;" d="M500 433h169v0 0q7 0 12-5t5-12q0-2-1-5t-3-6v0l-170-176q-2-2-5-3t-7-2-7 2-5 3v0l-170 176q-2 3-3 6t0 5q0 7 4 12t12 5v0 0 0h169z" horiz-adv-x="1000" />

<glyph glyph-name="uniE915" unicode="&#xe915;" d="M500 767q-86 0-162-33-76-32-133-89t-89-133q-33-76-33-162t33-162q32-76 89-133t133-89q76-33 162-33t162 33q76 32 133 89t89 133q33 76 33 162v0q0 86-33 162-32 76-89 133t-133 89q-76 33-162 33v0 0z m263-443l-213-212q-5-5-12-8t-15-3q-14 0-25 11t-12 26q0 8 3 14t8 13l144 143h-371q-18 0-31 12t-12 30 12 30 31 12v0h371l-143 144q-6 5-9 12t-3 14q0 16 12 26t25 11q8 0 15-3t12-8l213-212q5-4 8-11t2-15-2-15-8-11v0 0z" horiz-adv-x="1000" />

<glyph glyph-name="uniE916" unicode="&#xe916;" d="M550 588l213-212q5-4 8-11t2-15-2-15-8-11l-213-212q-5-5-12-8t-15-3q-14 0-25 11t-12 26q0 8 3 14t8 13l144 143h-371q-18 0-31 12t-12 30 12 30 31 12v0h371l-143 144q-6 5-9 12t-3 14q0 16 12 26t25 11q8 0 15-3t12-8v0 0z" horiz-adv-x="1000" />

<glyph glyph-name="uniE917" unicode="&#xe917;" d="M500 767q-86 0-162-33-76-32-133-89t-89-133q-33-76-33-162t33-162q32-76 89-133t133-89q76-33 162-33t162 33q76 32 133 89t89 133q33 76 33 162v0q0 86-33 162-32 76-89 133t-133 89q-76 33-162 33v0 0z m231-459h-372l143-143q6-6 9-13t3-14q0-15-12-26t-25-11q-8 0-15 3t-12 8l-213 212q-5 5-7 11t-3 15 3 15 7 11l213 212q5 5 12 8t15 3q14 0 25-11t12-26q0-8-3-14t-8-12l-144-144h372q17 0 30-12t12-30-12-30-30-12v0 0z" horiz-adv-x="1000" />

<glyph glyph-name="uniE918" unicode="&#xe918;" d="M450 112l-213 212q-5 5-7 11t-3 15 3 15 7 11l213 212q5 5 12 8t15 3q14 0 25-11t12-26q0-8-3-14t-8-12l-144-144h372q17 0 30-12t12-30-12-30-30-12v0h-372l143-143q6-6 9-13t3-14q0-15-12-26t-25-11q-8 0-15 3t-12 8v0 0z" horiz-adv-x="1000" />

<glyph glyph-name="uniE919" unicode="&#xe919;" d="M396 329v169 0 0q0 7 4 12t12 5q3 0 6-1t6-4l176-170q2-2 3-5t2-6q0-3-2-7t-3-5v0l-176-169q-3-3-6-4t-6-1q-7 0-12 5t-4 12v0 0 0 169z" horiz-adv-x="1000" />

<glyph glyph-name="uniE91A" unicode="&#xe91a;" d="M500 767q-86 0-162-33-76-32-133-89t-89-133q-33-76-33-162t33-162q32-76 89-133t133-89q76-33 162-33t162 33q76 32 133 89t89 133q33 76 33 162v0q0 86-33 162-32 76-89 133t-133 89q-76 33-162 33v0 0z m-69-449l183-184q6-6 10-14t4-18q0-9-4-17t-10-14v0q-6-7-14-11t-18-3q-9 0-17 3t-15 11l-247 247q-7 6-10 14t-4 18 4 18 10 14l247 248q7 6 15 10t17 3 18-3 14-10v0q6-7 10-15t4-17q0-10-4-18t-10-14l-183-184q-6-6-10-14t-3-18 3-18 10-14v0 0z" horiz-adv-x="1000" />

<glyph glyph-name="uniE91B" unicode="&#xe91b;" d="M656 70v0q6 7 10 15t3 17q0 10-3 18t-10 14l-183 184q-6 6-10 14t-4 18 4 18 10 14l183 184q6 6 10 14t3 17q0 10-3 18t-10 14v0q-7 7-15 11t-17 3q-10 0-18-3t-14-11l-248-247q-6-6-9-14t-4-18 4-18 9-14l248-247q6-7 14-11t18-3q9 0 17 3t15 11v0-1z" horiz-adv-x="1000" />

<glyph glyph-name="uniE91C" unicode="&#xe91c;" d="M344 630v0q-6-7-9-15t-4-17q0-10 4-18t9-14l183-184q6-6 10-14t4-18-4-18-10-14l-183-184q-6-6-9-14t-4-17q0-10 4-18t9-14v0q7-7 15-11t17-3q10 0 18 3t14 11l248 247q6 6 10 14t3 18-3 18-10 14l-248 247q-6 7-14 11t-18 3q-9 0-17-3t-15-11v0 1z" horiz-adv-x="1000" />

<glyph glyph-name="uniE91D" unicode="&#xe91d;" d="M500 767q-86 0-162-33-76-32-133-89t-89-133q-33-76-33-162t33-162q32-76 89-133t133-89q76-33 162-33t162 33q76 32 133 89t89 133q33 76 33 162v0q0 86-33 162-32 76-89 133t-133 89q-76 33-162 33v0 0z m197-449l-247-248q-7-6-14-10t-18-3-18 3-14 10v0q-6 7-10 15t-4 17q0 10 4 18t10 14l183 184q6 6 10 14t3 18-3 18-10 14l-183 184q-6 6-10 14t-4 18q0 9 4 17t10 14v0q6 7 14 11t18 3q9 0 17-3t15-11v0l247-247q7-6 11-14t3-18-3-18-11-14v0 0z" horiz-adv-x="1000" />

<glyph glyph-name="uniE91E" unicode="&#xe91e;" d="M356 64v19h69v27h-210v0 0q-8 0-13 5t-5 12v0 0 0 461q0 7 5 13t13 5v0h584q8 0 13-5t4-13v-461 0 0q0-6-4-12t-13-5v0 0h-219v-27h77v-19h-301z m-141 152h584v364h-584v-364z m320 170v9h9v-9h-9z m-32 0v9h-5v-4h-4v-5h-13v5h-5v4h-5v5h-4v22h5v5h4v5h5v4h13v-4h5v-5h4v23h10v-64h-10z m-27 19h5v-5h3v-4h5v4h5v5h4v13h-4v4h-5v5h-5v-5h-3v-4h-5v-13z m-46-19v64h10v-64h-10z m-73 0v50h9v-9h5v5h4v4h19v-4h4v-5h4v-9h-8v4h-5v5h-9v-5h-5v-4h-5v-4h-4v-28h-9z m-45 0v5h-5v4h-4v32h4v5h5v4h27v-4h4v-5h5v-32h-5v-4h-4v-5h-27z m0 14h3v-5h19v5h5v22h-5v5h-19v-5h-3v-22z m-37-14v5h-9v-5h-9v5h-5v4h-5v41h10v-36h4v-4h5v22h9v-23h4v5h5v36h9v-41h-4v-4h-5v-5h-9z m260 19v45h9v-45h-9z m-5 75v4h5v5h5v9h9v-9h-5v-5h-4v-4h-10z m-54 0v4h-5v5h-4v32h5v4h4v5h27v-5h5v-4h5v-32h-5v-5h-5v-4h-27z m0 14h5v-5h18v5h4v22h-4v5h-18v-5h-5v-22z m-46-14v63h10v-63h-10z m-55 0v63h10v-63h-10z m-63 0v4h-5v5h-4v32h4v4h5v5h27v-5h5v-4h4v-14h-4v-5h-32v-8h3v-5h19v5h14v-5h-4v-5h-5v-4h-27z m0 31h27v5h-5v5h-19v-5h-3v-5z m-28-31v27h-27v-27h-10v63h10v-27h27v27h9v-63h-9z" horiz-adv-x="1000" />

<glyph glyph-name="uniE91F" unicode="&#xe91f;" d="M597 437h57q2 0 4-2t1-3v-8q0-3-1-4t-4-2h-57q-2 0-4 2t-1 4v8q0 2 1 3t4 2z m5 75q0 13-9 22t-22 8v0 0h-150q-13 0-22-8t-9-22v0-33h212v33z m-211-343v0 0q0-3 2-4t5-3h197q3 1 5 3t2 4v133h-211v-133z m22 114h166q3 0 5-2t2-4q0-3-2-5t-5-1v0h-166q-3 0-5 1t-2 5q0 2 2 4t5 2v0 0z m0-29h166q3 0 5-2t2-4q0-2-2-4t-5-2v0h-166q-3 0-5 2t-2 4q0 2 2 4t5 2v0 0z m0-29h166q3 0 5-2t1-4q0-3-1-4t-5-3v0h-166q-3 1-4 3t-2 4q0 2 2 4t4 2v0 0z m0-28h166q3 0 5-2t2-5q0-2-2-4t-5-2v0h-166q-3 0-5 2t-2 4q0 3 2 5t5 2v0 0z m87 570q-86 0-162-33-76-32-133-89t-89-133q-33-76-33-162t33-162q32-76 89-133t133-89q76-33 162-33t162 33q76 32 133 89t89 133q33 76 33 162v0q0 86-33 162-32 76-89 133t-133 89q-76 33-162 33v0 0z m200-486v0 0q0-13-9-22t-21-9h-44v-81q0-12-9-22t-22-9h-197q-13 0-22 9t-10 23v80h-42q-12 0-22 9t-9 22v0 0 0 167q0 12 9 21t22 9v0h42v58q0 12 10 22t22 9v0h197q12 0 22-9t9-22v0-57h43q14 0 22-9t9-22v0-167z" horiz-adv-x="1000" />

<glyph glyph-name="uniE920" unicode="&#xe920;" d="M730 523h-58v77q0 18-12 30t-30 12v0h-267q-17 0-29-12t-13-30v0-77h-57q-18 0-30-12t-12-29v0-226q0-17 12-29t30-13v0h56v-108q0-18 13-30t30-13h265q19 0 31 13t12 30v108h59q17 0 29 13t13 29v0 226q0 16-13 29t-29 12v0 0z m-376 45q0 17 12 30t29 12v0h202q17 0 30-12t12-30v0-45h-285v45z m285-462q0-5-3-8t-7-3h-266q-4 0-7 3t-2 8v0 0 0 179h285v-179z m78 343q0-3-2-5t-6-2v0h-77q-3 0-5 2t-2 5v0 10q0 3 2 5t5 2v0h77q4 0 6-2t2-5v0-10z m-333-207h224q3 0 6 2t2 6q0 3-2 6t-6 2v0h-224q-4 0-7-2t-2-6q0-3 2-6t7-2v0z m0-39h224q3 0 6 2t2 6q0 3-2 6t-6 2v0h-224q-4 0-7-2t-2-6q0-4 2-6t7-2v0z m0-39h224q3 0 6 2t2 6-2 7-6 2v0h-224q-4 0-7-2t-2-7 2-6 7-2v0z m0-39h224q3 0 6 3t2 5q0 4-2 7t-6 2v0h-224q-4 0-7-2t-2-7q0-3 2-5t7-3v0z" horiz-adv-x="1000" />

<glyph glyph-name="uniE921" unicode="&#xe921;" d="M500 767q-86 0-162-33-76-32-133-89t-89-133q-33-76-33-162t33-162q32-76 89-133t133-89q76-33 162-33t162 33q76 32 133 89t89 133q33 76 33 162v0q0 86-33 162-32 76-89 133t-133 89q-76 33-162 33v0 0z m-46-144q9 8 21 14t25 5 25-5 21-14v0q9-9 14-21t5-24v-1 0 0-1 0q0-14-5-25t-14-20v0q-9-9-21-14t-24-5h-1v0 0 0 0q-27 0-46 19t-18 46v0 0 0 0 1q0 13 4 24t14 21v0 0z m152-565h-212v16h1 2q10 0 20 4t16 10v0q4 5 6 18t1 34v230q0 20-1 33t-7 19-14 10-24 4v16h165v-312q0-42 9-54 9-10 38-12z" horiz-adv-x="1000" />

<glyph glyph-name="uniE922" unicode="&#xe922;" d="M559 452v-312q0-42 9-54 9-10 38-12v-16h-212v16h1 2q10 0 20 4t16 10v0q4 5 6 18t1 34v230q0 20-1 33t-7 19-14 10-24 4v16h165z m-59 190v0 0q27 0 46-19t19-46v0 0 0-1 0q0-14-5-25t-14-20v0q-9-9-20-14t-25-5h0-1v0 0 0q-27 0-46 19t-18 46v0 0 0 0 1q0 13 4 24t14 21v0q9 8 20 14t25 5h1 0v0 0z" horiz-adv-x="1000" />

<glyph glyph-name="uniE923" unicode="&#xe923;" d="M564 633l-30-30q-2-1-2-2t-1-4 1-3 2-3v0q1-1 2-3t0-3q0-2 0-3t-2-2l-78-79q-3 4-8 6t-9 2q-11 0-19-7t-7-18q0-6 2-10t6-9v0l-84-83q-1-1-2-1t-4-1-3 1-3 1v0q-1 1-2 2t-4 1-3-1-2-2v0l-31-30q-1-1-1-2t-1-4 1-3 1-3v0l125-125q1-1 3-2t3-1 4 1 2 2v0l30 30q1 1 2 3t0 2q0 2 0 4t-2 3v0q-1 1-2 3t-1 3q0 1 1 3t2 3l83 83 245-244q4-4 9-6t9-2q11 0 18 7t7 18q0 5-2 10t-4 8l-246 245 79 77q0 2 2 3t3 0 4 0 2-3v0q1-1 3-1t3-1 4 1 2 1l30 31q1 1 2 2t0 3 0 4-2 2v0l-125 125q-2 2-3 3t-4 0-3 0-2-2v0 0z m-90-537v4 0 0q0 4-3 7t-8 3v0 0h-224v0 0q-5 0-8-3t-2-7v0 0 0-4q0-5-3-8t-7-3v0 0 0 0 0q-4 0-7-2t-4-7v0-12q0-4 3-7t8-4v0h264q4 0 7 4t3 7v0 12q0 5-3 7t-7 3v0 0q-3 0-6 3t-3 7v0 0 0 0z" horiz-adv-x="1000" />

<glyph glyph-name="uniE924" unicode="&#xe924;" d="M500 767q-86 0-162-33-76-32-133-89t-89-133q-33-76-33-162t33-162q32-76 89-133t133-89q76-33 162-33t162 33q76 32 133 89t89 133q33 76 33 162v0q0 86-33 162-32 76-89 133t-133 89q-76 33-162 33v0 0z m7-294q1 4 4 7t8 3h1 2v0q42-8 72-38t39-73v0-2 0q0-5-3-9t-7-3v0h-1v0h-1v0 0h0-1q-4 0-7 2t-4 7v0q-6 35-31 60t-60 32h-1q-4 1-7 4t-3 8v1 1 0 0z m163-282q-3-3-6-6t-6-5l-8-8-7-7v-1q-9-10-22-16t-28-6h-1 0v0h-6q-21 2-41 8t-38 15l2 0q-41 20-75 47t-63 60v1q-21 23-38 51t-28 58l-1 3q-6 13-9 28t-3 30v4 4-1q1 12 6 23t14 18l30 30q6 6 13 9t16 5h1q8-1 16-5t13-9v0q4-4 9-8t8-9l4-4 4-3 24-24q6-6 10-14t4-17q0-9-4-17t-10-13v0l-8-7q-4-6-9-11t-11-10q6-11 12-20t12-18v1q15-19 33-36t39-29l1-1 4-2t3-3l7-3 29 27q4 6 13 10t17 4v0q9 0 16-4t13-10v0l48-49q7-5 10-13t4-17v0q0-9-4-16t-9-14v0 0z m28 170h-2v0 0q-5 0-7 3t-4 7v0q-12 63-57 108t-106 56h-1q-5 1-8 4t-2 7v2 0 0q1 5 4 8t8 3l0 0t1-1v0q71-12 121-62t62-120l1-1v-1-1q0-4-3-8t-7-4v0 0z" horiz-adv-x="1000" />

<glyph glyph-name="uniE925" unicode="&#xe925;" d="M500 767q-86 0-162-33-76-32-133-89t-89-133q-33-76-33-162t33-162q32-76 89-133t133-89q76-33 162-33t162 33q76 32 133 89t89 133q33 76 33 162v0q0 86-33 162-32 76-89 133t-133 89q-76 33-162 33v0 0z m7-294q1 4 4 7t8 3h1 2v0q42-8 72-38t39-73v0-2 0q0-5-3-9t-7-3v0h-1v0h-1v0 0h0-1q-4 0-7 2t-4 7v0q-6 35-31 60t-60 32h-1q-4 1-7 4t-3 8v1 1 0 0z m163-282q-3-3-6-6t-6-5l-8-8-7-7v-1q-9-10-22-16t-28-6h-1 0v0h-6q-21 2-41 8t-38 15l2 0q-41 20-75 47t-63 60v1q-21 23-38 51t-28 58l-1 3q-6 13-9 28t-3 30v4 4-1q1 12 6 23t14 18l30 30q6 6 13 9t16 5h1q8-1 16-5t13-9v0q4-4 9-8t8-9l4-4 4-3 24-24q6-6 10-14t4-17q0-9-4-17t-10-13v0l-8-7q-4-6-9-11t-11-10q6-11 12-20t12-18v1q15-19 33-36t39-29l1-1 4-2t3-3l7-3 29 27q4 6 13 10t17 4v0q9 0 16-4t13-10v0l48-49q7-5 10-13t4-17v0q0-9-4-16t-9-14v0 0z m28 170h-2v0 0q-5 0-7 3t-4 7v0q-12 63-57 108t-106 56h-1q-5 1-8 4t-2 7v2 0 0q1 5 4 8t8 3l0 0t1-1v0q71-12 121-62t62-120l1-1v-1-1q0-4-3-8t-7-4v0 0z" horiz-adv-x="1000" />

<glyph glyph-name="uniE926" unicode="&#xe926;" d="M500-67q-86 0-162 33-76 32-133 89t-89 133q-33 76-33 162 0 43 9 84t24 78 38 71q23 34 51 62v0q28 29 63 53t72 40 79 25q42 9 86 9 87 0 162-33 76-33 133-89t89-133q33-75 33-162 0-44-9-86-9-41-25-79t-40-72q-24-34-53-63v0q-28-28-62-51t-70-38-78-24q-41-9-84-9h0-1v0 0z m69 650q-63 0-108-44t-45-109v0 0-1q0-14 3-28t7-27v1l-148-146-2-4t-1-4v-1 0 0-80 0 0q0-5 4-8t8-3v0 0h66v0 0q3 0 4 1t3 2v0l24 23 2 4t1 4v0 1 0 27h27q5 0 8 3t3 8v0 10h11q4 0 8 4t3 7v25h24 1v0q2 0 4 0l4 2v0l35 37q12-5 26-8t28-2q64 0 109 45t46 108-46 109-109 44v0 0 0 0z m47-148q-17 0-30 12t-12 30q0 17 12 29t30 12q17 0 29-12t12-29v0q0-18-12-30t-29-12v0 0z" horiz-adv-x="1000" />

<glyph glyph-name="uniE927" unicode="&#xe927;" d="M578 602q-71 0-121-50t-50-120v0 0-1q0-16 3-31t9-29l-1 1-162-164q-2-2-3-3t-1-5v0-89q0-5 3-9t10-4v0h73q3 0 5 1t4 3v0l25 25q1 1 2 4t1 4v0 30h30q5 0 9 4t4 9v0 12h12q6 0 9 4t3 9v0 26h27q3 0 5 1t4 3l39 39q13-5 29-8t31-3q71 0 121 50t50 121q0 70-50 120t-121 50v0 0 0h1z m52-165q-20 0-33 14t-14 33q0 18 14 32t33 14q18 0 32-14t14-32v0 0 0q0-20-14-33t-32-14v0 0 0z" horiz-adv-x="1000" />

<glyph glyph-name="uniE928" unicode="&#xe928;" d="M670 469q-2 2-4 3t-6 1q-2 0-4-1t-4-2v0l-152-136-29 27-2 2-120 107q-2 2-4 3t-5 1-5-1-5-4v0q-1-1-2-3t-1-5q0-3 1-5t3-4v0l111-100-110-104q-2-1-3-3t-2-5 1-5 3-4v0q2-2 4-3t5-1v0q3 0 5 1l4 2 112 105 30-27q2-2 4-2t5-1v0 0 0q2 0 4 1t5 2v0l31 28 111-106q2-2 4-3t5-1v0 0 0q3 0 5 1t4 3v0q2 2 3 4t1 5-1 5-3 4v0l-110 105 110 99q2 1 3 3t1 5-1 5l-2 4v0 0z m-170 298q-86 0-162-33-76-32-133-89t-89-133q-33-76-33-162t33-162q32-76 89-133t133-89q76-33 162-33t162 33q76 32 133 89t89 133q33 76 33 162v0q0 86-33 162-32 76-89 133t-133 89q-76 33-162 33v0 0z m225-564q0-11-8-19t-18-8v0h-398q-11 0-18 8t-8 19v0 295q0 10 8 18t18 8h398q11 0 18-8t8-18v0-295z" horiz-adv-x="1000" />

<glyph glyph-name="uniE929" unicode="&#xe929;" d="M759 575h-518q-13 0-23-10t-10-24v0-382q0-14 10-24t23-10v0h518q14 0 23 10t10 24v0 382q0 14-10 24t-23 10v0 0z m-40-358q3-2 4-5t1-6q0-3-1-6t-3-5v0q-2-3-6-5t-6-1v0 0 0q-4 0-6 1t-6 4v0l-144 137-41-36q-2-2-5-3t-6-1v0 0 0q-3 0-6 1t-5 3v0l-39 36-146-136q-2-2-5-3t-6-1v0 0 0q-4 0-7 1t-5 4v0q-2 2-3 5t-2 5q0 4 2 7t3 5v0l145 135-145 129q-2 2-3 5t-2 8q0 3 1 5t3 5v0q2 2 6 4t6 1q4 0 6-1t6-3v0l158-141v0 0l38-35 197 175 4 2t5 1q7 0 12-5t5-12q0-2-1-5t-3-5v0l-143-127z" horiz-adv-x="1000" />

<glyph glyph-name="uniE92A" unicode="&#xe92a;" d="M500 767q-86 0-162-33-76-32-133-89t-89-133q-33-76-33-162t33-162q32-76 89-133t133-89q76-33 162-33t162 33q76 32 133 89t89 133q33 76 33 162v0q0 86-33 162-32 76-89 133t-133 89q-76 33-162 33v0 0z m207-460h-164v-164q0-18-13-30t-30-13-30 13-13 30v0 164h-164q-18 0-30 13t-13 30 13 30 30 13v0h164v164q0 18 13 30t30 13 30-13 13-30v0-164h164q18 0 30-13t13-30-13-30-30-13v0 0z" horiz-adv-x="1000" />

<glyph glyph-name="uniE92B" unicode="&#xe92b;" d="M374 400q-2 2-5 3t-6 2v0 0h-75v0 0q-7 0-11-5t-4-11v-186q0-7 4-12t11-4v0h75v0 0q4 0 7 1t5 4v0q0 1 0 1t-1 2v0 0 0 205z m126 367q-86 0-162-33-76-32-133-89t-89-133q-33-76-33-162t33-162q32-76 89-133t133-89q76-33 162-33t162 33q76 32 133 89t89 133q33 76 33 162v0q0 86-33 162-32 76-89 133t-133 89q-76 33-162 33v0 0z m243-429v0 0q0-12-6-22t-17-15v0q5-6 8-12t3-16q0-12-7-22t-17-15v0q5-6 7-13t3-15q0-17-12-29t-29-13h-240-1-1q-13 0-25 4t-21 10v-1q-4-5-11-8t-14-3h-75q-14 0-24 10t-10 25v186q0 15 10 25t24 9v0 0h75v0 0q7 0 13-2t10-6v0q12 6 45 27t50 55q6 13 11 42t6 42q0 8 6 14t14 5h0 2v0q9-1 18-6t15-13v0q8-11 13-32t0-57q-1-13-4-25t-8-23v1h147v0 0q18 0 30-12t12-29q0-10-4-19t-11-13v0q6-6 11-15t4-19v0 0 0 0z" horiz-adv-x="1000" />

<glyph glyph-name="uniE92C" unicode="&#xe92c;" d="M773 369q8 6 14 16t5 22q0 21-15 36t-36 14h-176q5 12 9 26t6 29v1q6 44-1 69t-15 38q-7 8-18 15t-23 8v0h-1-1q-10 0-17-7t-7-15v0q-1-17-6-51t-14-51q-21-41-60-66t-55-32q-5 5-11 8t-15 2v0 0h-90q-16 0-29-12t-12-29v-224 0 0q0-16 12-28t29-13h90v0 0q10 0 18 4t12 10v0q12-7 26-11t30-5h0 1v0h288v0 0q20 0 35 15t15 36q0 9-4 18t-9 15v0q13 6 21 19t7 26q0 9-3 18t-9 15v0q12 6 20 18t7 27q0 11-5 22t-13 17v0 0z m-437-221h-90v0 0q-8 0-13 5t-5 13v0 0 0 224q0 8 5 14t13 6v0h90v0 0q4 0 7-2t7-4v0-246-2t1-2h-1q-2-3-6-5t-8-1v0 0 0 0z" horiz-adv-x="1000" />

<glyph glyph-name="uniE92D" unicode="&#xe92d;" d="M707 307q18 0 30 13t13 30-13 30-30 13v0h-414q-18 0-30-13t-13-30 13-30 30-13v0h414z" horiz-adv-x="1000" />

<glyph glyph-name="uniE92E" unicode="&#xe92e;" d="M675 553l-347 3h-1-1q-17 0-30-12t-13-29v0l-1-197v0 0q0-9 4-16t8-13v0q7-6 15-9t16-3v0 0 0l37-1q3 0 6-2t5-3v0q2-3 4-6t1-6v0-1 0l-6-95 137 108q2 2 4 3t6 1v0l154-1h0 1q17 0 30 12t13 28v0l1 197v0 0q0 9-4 16t-8 13v0q-7 6-15 10t-16 3v0 0 0 0z m-151-190h-138q-6 1-10 5t-5 11q0 6 5 11t10 5v0h138q6 0 11-5t4-11q0-6-4-11t-11-5v0 0z m90 80h-228q-7 0-11 5t-5 11 5 12 11 4h228q7 0 12-4t4-12-4-11-12-5v0z m-114 324q-86 0-162-33-76-32-133-89t-89-133q-33-76-33-162t33-162q32-76 89-133t133-89q76-33 162-33t162 33q76 32 133 89t89 133q33 76 33 162v0q0 86-33 162-32 76-89 133t-133 89q-76 33-162 33v0 0z m249-453q-1-30-23-51t-52-21h-1 0v0h-1l-149 1-160-127q-2-2-4-3t-5-1q-7 0-12 5t-4 11v1 0 0l7 115-20 1q-15 0-29 5t-24 16v0q-10 10-16 23t-6 28v1 1-1l1 197q1 30 23 52t52 21h1 1v0l347-3q15 0 29-5t25-17v0q9-10 15-23t6-28v0-1 0z" horiz-adv-x="1000" />

<glyph glyph-name="uniE92F" unicode="&#xe92f;" d="M728 563q-10 11-24 16t-29 6l-347 3h0-2q-30 0-52-21t-22-52v0l-2-197v0 0q0-16 6-29t17-23v0q9-10 23-16t29-5h20l-8-116v0-1q0-6 5-11t12-4q2 0 5 1t4 2v0l160 127 150-1h0 1q30 0 52 21t23 51v0l1 197v0 1q0 15-6 28t-16 23v0 0z m-11-249q-1-17-13-28t-30-12h-1 0v0h-1l-153 1q-3 0-6-1t-4-3v0l-137-107 6 94v1 0q0 3-1 6t-4 5v0q-2 3-5 4t-6 2v0h-36 0-1q-9 0-16 3t-14 10v0q-6 5-9 13t-4 15v1 0 0l1 197q1 17 13 29t30 12h1 0v0l347-3q9 0 17-3t14-10v0q6-5 9-13t3-16v0 0 0-197z m-103 161h-228q-7 0-11-5t-5-11q0-6 5-11t11-5h228q7 0 12 5t4 11q0 6-4 11t-12 5v0z m-90-80h-138q-6 0-10-5t-5-11q0-6 5-11t10-5v0h138q6 1 11 5t4 11q0 6-4 11t-11 5v0z" horiz-adv-x="1000" />

<glyph glyph-name="uniE930" unicode="&#xe930;" d="M388 567h90v-425h-90v425 0z m135 0h89v-425h-89v425z" horiz-adv-x="1000" />

<glyph glyph-name="uniE931" unicode="&#xe931;" d="M561 388q59-13 95-44t36-95q0-64-44-106t-126-47v-56h-45v56q-83 5-124 47t-44 96h92q4-24 24-41t52-22v136l-34 8q-56 12-90 46t-35 90q0 63 44 102t115 46v57h44v-56q76-5 118-45t46-95h-92q-4 24-23 40t-49 21v-129z m-84 137q-29-6-45-23t-16-40q0-20 16-34t45-20v117z m45-351q36 4 55 22t20 44q0 25-19 39t-56 23v-128z" horiz-adv-x="1000" />

<glyph glyph-name="uniE932" unicode="&#xe932;" d="M500 517q-41 0-70-29t-29-71q0-40 29-69t70-29 70 29 29 69v1 0 0q0 41-29 70t-70 29v0 0 0 0z m0 250q-86 0-162-33-76-32-133-89t-89-133q-33-76-33-162t33-162q32-76 89-133t133-89q76-33 162-33t162 33q76 32 133 89t89 133q33 76 33 162v0q0 86-33 162-32 76-89 133t-133 89q-76 33-162 33v0 0z m174-427q-19-39-42-77-25-39-49-72t-44-59q-20-25-30-37-1 0-1 0t-1-1v0q-1-1-3-2t-4-1q-3 0-5 1t-4 3v0q-10 12-30 37t-44 59-49 72q-24 38-42 77-8 18-12 37t-4 40v1 0 0q0 39 14 75 15 34 41 60t61 40q34 16 74 16 39 0 73-16 35-14 61-40t41-60q15-36 15-75v0-1-1q0-20-4-40t-13-37l1 1v0z" horiz-adv-x="1000" />

<glyph glyph-name="uniE933" unicode="&#xe933;" d="M500 609q-39-1-74-16-34-14-60-40t-41-60q-15-36-15-75v0 0-1q0-20 4-40t13-38l-1 1q19-39 42-77 25-39 49-72t44-59q20-25 30-37 2-2 4-3t5-1q2 0 3 1t4 2v0l0 1 1 0v0q10 12 30 37t45 59 48 72q24 38 42 77 8 18 12 37t5 40v1 0 0q0 39-15 74-15 35-41 61t-60 40q-35 15-74 16v0 0z m0-289q-41 0-70 29t-29 69 29 70 70 29 70-29 29-70v0q0-41-29-69t-70-29v0z" horiz-adv-x="1000" />

<glyph glyph-name="uniE934" unicode="&#xe934;" d="M647 333l-252-160q-4-3-10-4t-11-2q-5 0-10 2t-8 3v0q-9 5-15 14t-5 20v0 0 0 289q0 10 5 19t14 13v0q3 3 9 4t10 2 10-2 9-3v0l251-130q9-5 15-14t5-19q0-10-5-18t-12-14v0 0z" horiz-adv-x="1000" />

<glyph glyph-name="uniE935" unicode="&#xe935;" d="M500 767q-86 0-162-33-76-32-133-89t-89-133q-33-76-33-162t33-162q32-76 89-133t133-89q76-33 162-33t162 33q76 32 133 89t89 133q33 76 33 162v0q0 86-33 162-32 76-89 133t-133 89q-76 33-162 33v0 0z m65-664q-2-7-6-13t-9-10v0q-5-5-11-9t-12-7h-1q-5-3-13-4t-15-2-15 2-14 4v0q-7 3-13 7t-11 9v0q-5 4-8 10t-6 13h-1q-2 7-4 14t-1 14 1 15 5 15h-1q3 6 7 12t8 11v0q5 5 11 9t13 7v0q7 2 14 4t15 2 15-2 14-4h-1q7-3 13-7t11-9v0q5-5 9-11t6-12v0q3-7 5-15t1-15-1-15-5-14v1 0z m118 340q-3-11-8-20t-9-17v0q-7-11-14-20t-16-17v0q-11-11-23-21l-23-19-1-1q-8-5-14-13t-11-15v0q-3-7-5-13t-2-14v0q0-10-7-17t-16-7v0h-73q-10 0-17 7t-6 17v0 12 0 1q0 10 2 21t4 19v-1q4 9 10 17t12 14v0q22 21 41 38 10 8 17 15t15 14q6 6 11 13t10 14h1q3 6 5 12t2 14v0 1 2q0 11-4 21t-12 17h-1q-7 7-17 11t-21 4h-2-1v0q-19 0-33-6t-24-15q-6-7-11-14t-7-18v0q-2-8-9-12t-14-5h0-1v0l-77 4q-9 1-15 8t-6 16v3t1 2v0q4 31 20 57t37 45v0q54 45 138 45h0 1q18 0 35-3t34-8l-2 1q17-6 31-13t27-17h-1q13-10 22-22t17-27v-1q7-13 11-30t4-34v-2-1 0-1 0q0-11-2-22t-3-20v1 0z" horiz-adv-x="1000" />

<glyph glyph-name="uniE936" unicode="&#xe936;" d="M439 285v1 2q0 9 1 19t4 19v-1q4 9 10 17t12 14v0q22 21 41 38 10 8 17 15t15 14q6 6 11 13t10 14h1q3 6 5 12t2 14v0 1 2q0 11-4 21t-12 17h-1q-7 7-17 11t-21 4h-2-1v0q-19 0-33-6t-24-15q-6-7-11-14t-7-18v0q-2-8-9-12t-14-5h0-1v0l-77 4q-9 1-15 8t-6 16v3t1 2v0q4 31 20 57t37 45v0q54 45 138 45h0 1q18 0 35-3t34-8l-2 1q17-6 31-13t27-17h-1q13-10 22-22t17-27v-1q7-13 11-30t4-34v-2-1 0-1-1q0-11-1-21t-4-20v1q-3-11-7-20t-10-17v0q-7-10-14-19t-16-18v0q-11-11-23-21l-23-19-1-1q-8-5-14-13t-11-15v0q-3-6-5-12t-1-15v0q0-10-7-17t-17-7v0h-73q-10 0-17 7t-6 17v0z m-14-154v1 0q0 7 1 14t5 15h-1q3 6 7 12t8 11v0q5 5 11 9t13 7v0q7 2 14 4t15 2 15-2 14-4h-1q7-3 13-7t11-9v0q5-5 9-11t6-12v0q3-7 5-15t1-15-1-15-5-14v1q-2-7-6-13t-9-10v0q-5-5-11-9t-12-7h-1q-5-3-13-4t-15-2-15 2-14 4v0q-7 3-13 7t-11 9v0q-5 4-8 10t-6 12l-1 1q-2 6-4 13t-1 15v0 0 0 0z" horiz-adv-x="1000" />

<glyph glyph-name="uniE937" unicode="&#xe937;" d="M841 325q-11 0-18 7t-8 18 8 18 18 7v0h76q-5 80-37 149t-85 121-121 85-148 37h-1v-76q0-11-7-18t-18-8-18 8-7 18v0 76q-79-5-149-37t-121-85-85-121-37-148v-1h76q11 0 18-7t8-18-8-18-18-7v0h-76q5-79 37-149t85-121 121-85 148-37h1v76q0 11 7 18t18 8 18-8 7-18v0-76q80 5 149 37t121 85 85 121 37 148v1h-76z m-128-184q-3-2-6-4t-8-2-7 2-6 4v0l-188 190q-2 3-3 7t-2 7v0 200 1 0q0 8 6 14t13 6 13-6 6-14v0-1 0-192l182-185q3-3 4-6t2-7-2-8-4-6v0 0z" horiz-adv-x="1000" />

<glyph glyph-name="uniE938" unicode="&#xe938;" d="M609 234l-45-46-39 22t-89 73l-3 3q-51 50-73 89l-22 39 46 45q39 40 23 81t-53 81q-10 9-23 15t-28 6q-13 0-25-5t-21-14v0h-1q-25-24-36-57t-12-72q1-35 10-72 10-37 28-75t43-75q26-37 61-71t71-61q38-26 76-44t74-27q38-10 73-10v0q38 0 71 12t58 36l0 1q8 9 13 20t5 26q0 14-6 28t-15 22v0q-40 39-80 54t-81-24v0z" horiz-adv-x="1000" />

<glyph glyph-name="uniE939" unicode="&#xe939;" d="M500 767q-86 0-162-33-76-32-133-89t-89-133q-33-76-33-162t33-162q32-76 89-133t133-89q76-33 162-33t162 33q76 32 133 89t89 133q33 76 33 162v0q0 86-33 162-32 76-89 133t-133 89q-76 33-162 33v0 0z m4-617v0 0q-23 0-39 16t-16 39 16 38 39 16 39-16 16-38v0 0 0q0-23-16-39t-39-16v0 0z m149 157q-1-1-1-2l-1-1q-3-4-7-5t-9-2q-3 0-7 1t-6 3v0q-25 19-57 29t-65 10-65-10-58-29h1q-3-2-6-3t-7-1q-6 0-10 3t-8 7v0q-2 2-3 5t-1 8q0 6 2 10t7 7v1q31 22 68 35t80 12 80-12 69-36l-1 1q4-4 7-8t2-10q0-4-1-8t-3-6v1 0z m96 135l-1-2-2-1v0q-3-3-7-5t-8-2q-3 0-7 1t-6 3v0q-45 33-101 51t-117 18-117-18-102-51h1q-3-2-6-3t-6-1q-6 0-11 3t-8 7v0q-2 3-3 6t-1 7q0 5 3 10t6 7v1q51 36 113 57t131 20 131-21 114-57l-1 1q4-4 7-8t2-10q0-4-1-7t-3-6v0 0z" horiz-adv-x="1000" />

<glyph glyph-name="uniE93A" unicode="&#xe93a;" d="M500 767q-86 0-162-33-76-32-133-89t-89-133q-33-76-33-162t33-162q32-76 89-133t133-89q76-33 162-33t162 33q76 32 133 89t89 133q33 76 33 162v0q0 86-33 162-32 76-89 133t-133 89q-76 33-162 33v0 0z m0-150v0 0q20 0 34-15t14-33-14-34-34-14-34 14-14 34v0 0 0q0 19 14 33t34 15v0 0z m180-227v0q-4-6-11-9t-13-4q-4 0-8 1t-6 3v0l-94 62v-120l88-202q2-3 2-7t1-6q0-12-8-20t-19-7q-7 0-14 3t-10 11v0l-88 199-88-199q-4-7-10-11t-14-3q-11 0-19 8t-8 19q0 4 1 7t2 6v0l88 202v120l-94-61q-2-3-6-4t-8-1q-7 0-13 4t-10 9h-1q-2 3-3 7t-1 8q0 7 4 13t9 9v0l111 75q6 4 13 6t14 2h67q7 0 14-2t12-6v0l112-75q5-3 8-9t4-13q0-4-1-8t-3-7v0 0z" horiz-adv-x="1000" />

<glyph glyph-name="uniE93B" unicode="&#xe93b;" d="M500 776q-88 0-166-33-77-35-135-92t-92-135q-33-78-33-166t33-166q35-77 92-135t135-92q78-33 166-33t166 33q77 35 135 92t92 135q33 78 33 166v0q0 88-33 166-35 77-92 135t-135 92q-78 33-166 33v0 0z m0-825q-83 0-155 31-73 31-128 85t-85 128q-31 72-31 155t31 155q31 74 85 128t128 85q72 31 155 31t155-31q74-31 128-85t85-128q31-72 31-155v0q0-83-31-155-32-72-86-127t-127-86q-72-31-155-31v0 0z m48 618q0-20-14-34t-34-14-34 14-14 34 14 33 34 15 34-15 14-33z m123-142l-111 75q-6 4-13 6t-13 2h-68q-7 0-13-2t-13-6v0l-111-75q-6-4-9-10t-4-12q0-4 1-8t3-7v0q4-6 10-9t14-4q4 0 7 1t7 3v0l94 62v-120l-88-202q-2-3-2-7t-1-6q0-12 8-20t19-7q8 0 14 3t10 11v0l88 199 88-199q4-7 10-11t14-3q11 0 19 8t8 19q0 4-1 7t-2 6v0l-88 202v120l94-61q3-3 6-4t8-1q7 0 13 4t10 9h1q2 3 3 7t1 8q0 7-4 12t-9 10v0 0z" horiz-adv-x="1000" />

<glyph glyph-name="uniE93C" unicode="&#xe93c;" d="M714 849h-428q-59 0-111-22t-90-61-62-91-22-111v-428q0-59 22-111t62-91 90-61 111-22h428q59 0 111 22t91 61 61 91 22 111v428q0 59-22 111t-61 91-91 61-111 22v0z m101-309q-3-4-9-6t-11-2-11 2-10 6l-60 60q-5 5-11 9t-13 5h-1q-2 1-4 1h-4q-10 0-18-4t-15-10v0l-354-353q-6-6-10-15t-4-18q0-2 1-4t0-4v0q2-7 6-14t8-11v0l76-74q6-7 14-10t18-4 18 4 15 10v0l254 252q5 7 9 15t3 17q0 20-13 33t-33 13h-4-4 0q-7-2-14-5t-11-10v0l-205-204q-4-5-9-7t-11-2q-13 0-21 9t-9 21q0 6 3 11t6 9v0l206 206q14 13 32 20t38 7q43 0 74-31t30-73q0-20-7-38t-19-32v0l-254-253q-14-15-33-23t-41-8h-1-2v0q-21 1-40 10t-33 23v0l-71 72q-15 14-24 33t-10 40v0 2 1q0 22 8 41t23 33v0l353 353q15 15 34 22t41 8q12 0 24-2t22-7v0q6-3 12-8t11-9l65-66q4-3 7-9t2-11q0-7-2-12t-7-9v0 0z" horiz-adv-x="1000" />

<glyph glyph-name="uniE93D" unicode="&#xe93d;" d="M400 35q-21 1-40 10t-33 23v0l-71 72q-15 14-24 33t-10 40v0 2 1q0 22 8 41t23 33v0l353 353q15 15 34 22t41 8q12 0 24-2t22-7v0q6-3 12-8t11-9l65-66q4-3 7-9t2-11q0-7-2-12t-7-9v0q-3-4-9-6t-11-2-11 2-10 6v0l-60 60q-5 5-11 9t-13 5h-1q-2 1-4 1h-4q-10 0-18-4t-15-10v0l-354-353q-6-6-10-15t-4-18q0-2 1-4t0-4v0q2-7 6-14t8-11v0l76-74q6-7 14-10t18-4 18 4 15 10v0l254 252q5 7 9 15t3 17q0 20-13 33t-33 13h-4-4 0q-7-2-14-5t-11-10v0l-205-204q-4-5-9-7t-11-2-12 2-9 7v0q-4 4-6 9t-3 12 3 11 6 9v0l206 206q14 13 32 20t38 7q43 0 74-31t30-73q0-20-7-38t-19-32v0l-254-253q-14-15-33-23t-41-8h-1-2v0 0z m314-184h-428q-59 0-111 22t-90 61-62 91-22 111v428q0 59 22 111t62 91 90 61 111 22h428q59 0 111-22t91-61 61-91 22-111v-428q0-59-22-111t-61-91-91-61-111-22v0z m-428 974q-54 0-101-21t-83-56-56-83-21-101v-428q0-54 21-101t56-83 83-56 101-21h428q54 0 101 21t83 56 56 83 21 101v428q0 54-21 101t-56 83-83 56-101 21v0h-428z" horiz-adv-x="1000" />

<glyph glyph-name="uniE93E" unicode="&#xe93e;" d="M500 776q-88 0-166-33-77-35-135-92t-92-135q-33-78-33-166t33-166q35-77 92-135t135-92q78-33 166-33t166 33q77 35 135 92t92 135q33 78 33 166v0q0 88-33 166-35 77-92 135t-135 92q-78 33-166 33v0 0z m-189-335q1 17 13 30t30 13v0q18-1 31-14t13-32v0-1 1q-1-18-14-30t-30-13v0q-18 0-31 13t-12 31v1 1 0 0z m337-235q0-16-11-28t-28-12v0q-23 14-51 21t-58 7-58-8-52-20h1q-17 0-28 12t-11 28v8 1 2q0 60 41 103t99 47h1 3 4q30 0 56-11t46-29v0q21-22 34-50t12-61v-1-1 0-8z m-2 190q-18 0-30 13t-12 30v0 1 0 0 2q0 17 12 30t32 13q17 0 30-13t12-30v-2-1 1-1 0q0-19-12-31t-30-13h-2t0 1v0 0z m125 107q-16 0-27 12t-11 25v0 0 0q0 16 18 52t20 35q3 0 21-35t17-52v0 0q0-15-12-26t-26-11v0 0 0 0z" horiz-adv-x="1000" />

<glyph glyph-name="uniE93F" unicode="&#xe93f;" d="M714 849h-428q-59 0-111-22t-90-61-62-91-22-111v-428q0-59 22-111t62-91 90-61 111-22h428q59 0 111 22t91 61 61 91 22 111v428q0 59-22 111t-61 91-91 61-111 22v0z m27-549h-191v-191q0-22-15-36t-35-15-35 15-15 36v0 191h-191q-22 0-36 15t-15 35 15 35 36 15v0h191v191q0 22 15 36t35 15 35-15 15-36v0-191h191q22 0 36-15t15-35-15-35-36-15v0 0z" horiz-adv-x="1000" />

<glyph glyph-name="uniE940" unicode="&#xe940;" d="M714-149h-428q-59 0-111 22t-90 61-62 91-22 111v428q0 59 22 111t62 91 90 61 111 22h428q59 0 111-22t91-61 61-91 22-111v-428q0-59-22-111t-61-91-91-61-111-22v0z m-428 974q-54 0-101-21t-83-56-56-83-21-101v-428q0-54 21-101t56-83 83-56 101-21h428q54 0 101 21t83 56 56 83 21 101v428q0 54-21 101t-56 83-83 56-101 21v0h-428z m455-425h-191v191q0 22-15 36t-35 15-35-15-15-36v0-191h-191q-22 0-36-15t-15-35 15-35 36-15v0h191v-191q0-22 15-36t35-15 35 15 15 36v0 191h191q22 0 36 15t15 35-15 35-36 15v0 0z" horiz-adv-x="1000" />

<glyph glyph-name="uniE941" unicode="&#xe941;" d="M714 849h-428q-59 0-111-22t-90-61-62-91-22-111v-428q0-59 22-111t62-91 90-61 111-22h428q59 0 111 22t91 61 61 91 22 111v428q0 59-22 111t-61 91-91 61-111 22v0z m62-773h-181q-19-16-43-25t-52-10-52 10-43 26v-1h-181q-10 0-14 9t1 18q34 51 40 116t8 140l1-2v5 5q0 8 0 17t2 17v-1q9 80 54 142t112 85q6 28 26 46t46 19 46-19 26-46q67-23 113-85t53-142q1-8 2-16t0-17v0-5-5l1 2q3-74 9-140t39-116q5-9 1-18t-14-9v0z" horiz-adv-x="1000" />

<glyph glyph-name="uniE942" unicode="&#xe942;" d="M714 849h-428q-59 0-111-22t-90-61-62-91-22-111v-428q0-59 22-111t62-91 90-61 111-22h428q59 0 111 22t91 61 61 91 22 111v428q0 59-22 111t-61 91-91 61-111 22v0z m-118-116q4 0 8 0t9 1q74 0 127-49t60-121v-1-1 0q0-5-3-8t-8-5v0h-2v0 0q-5 0-8 4t-4 8v0q-5 62-52 105t-110 42h-7t-8-1h1-1-1q-5 0-9 4t-3 9 3 8 8 5v0 0z m137-169v0-1q0-5-3-8t-8-4v0h-1v0 0q-5 0-9 3t-4 8v0q-3 35-29 59t-62 24q-2 0-4-1t-4 0v0h0-1q-5 0-9 4t-3 9 3 8 8 4v0h5 5q45 0 78-30t38-74v-1 0z m-566-280q-2-2-4-3t-5-1-5 1-4 3v0q-25 25-39 59t-14 72 14 74 40 59v0q2 2 4 3t5 0q5 0 9-3t4-9q0-2-1-4t-3-4v0q-21-23-35-53t-13-63 13-63 34-51v0q2-2 3-4t1-5q0-2-1-5t-3-3v0 0z m42 66l2-4t1-5q0-5-3-8t-9-4v0q-3 1-5 2l-4 1v0q-15 16-24 37t-9 46 10 45 24 37v0q2 1 5 2t4 1q6 0 9-3t4-9q0-2-1-5t-3-4v0q-13-13-20-29t-7-35q0-20 7-36t19-29v0 0z m661-138l-166-73q-18-37-54-59t-79-23q-10 0-21 2t-21 4l1-1-166-73q-8-4-16 3t-6 17q11 61-11 123t-49 130l2-2q-1 3-2 5t-3 5q-2 6-5 13t-4 14l-1 3q-26 77-9 152t68 124q-5 28 6 52t35 36q24 10 50 1t42-31q70 5 137-33t107-108q4-6 7-13l8-15v-2q1-2 2-4t2-4v0 1q32-66 64-124t82-90q9-5 9-15t-9-15v0z" horiz-adv-x="1000" />

<glyph glyph-name="uniE943" unicode="&#xe943;" d="M741 359l-1-2v5 5q0 8 0 17t-2 17v-1q-7 80-53 142t-113 85q-6 28-26 46t-46 19-46-19-26-46q-67-23-113-85t-53-142q-1-8-2-16t0-17v0-5-5l-1 2q-3-74-8-140t-40-116q-6-8-1-18t13-9h182q19-16 43-25t52-10 52 10 43 26v-1h181q10 0 14 9t-1 18q-34 51-40 116t-8 140v0z m-27-508h-428q-59 0-111 22t-90 61-62 91-22 111v428q0 59 22 111t62 91 90 61 111 22h428q59 0 111-22t91-61 61-91 22-111v-428q0-59-22-111t-61-91-91-61-111-22v0z m-428 974q-54 0-101-21t-83-56-56-83-21-101v-428q0-54 21-101t56-83 83-56 101-21h428q54 0 101 21t83 56 56 83 21 101v428q0 54-21 101t-56 83-83 56-101 21v0h-428z" horiz-adv-x="1000" />

<glyph glyph-name="uniE944" unicode="&#xe944;" d="M724 456v0-1q-1 1-2 4t-2 4q-4 10-8 17t-8 15l1-2q-40 71-107 109t-137 32q-17 24-42 32t-50-1q-24-11-35-36t-6-53q-51-48-68-123t9-153q3-10 5-17l6-16v2q1-2 2-4t2-5l-1 2q28-69 49-131t11-122q-2-11 5-17t16-3l167 73q9-3 19-4t21-2q44 0 79 23t54 59v1l167 73q9 4 8 15t-8 15q-52 33-83 90t-64 124v0z m-10-605h-428q-59 0-111 22t-90 61-62 91-22 111v428q0 59 22 111t62 91 90 61 111 22h428q59 0 111-22t91-61 61-91 22-111v-428q0-59-22-111t-61-91-91-61-111-22v0z m-428 974q-54 0-101-21t-83-56-56-83-21-101v-428q0-54 21-101t56-83 83-56 101-21h428q54 0 101 21t83 56 56 83 21 101v428q0 54-21 101t-56 83-83 56-101 21v0h-428z m435-275v0 0q-5 0-9 4t-4 8v0q-3 35-29 59t-62 24q-2 0-4-1t-4 0v0h0-1q-5 0-9 4t-3 9 3 8 8 4v0h5 5q45 0 78-30t38-74v-1 0-1q0-5-3-8t-8-4v0z m66-1v0 0q-5 0-8 4t-4 8v0q-5 62-52 105t-110 42h-7t-8-1h1-1-1q-5 0-9 4t-3 9 3 8 8 5v0q4 0 8 0t9 1q74 0 127-49t60-121v-1-1 0q0-5-3-8t-8-5v0h-2z m-587-220q-3 1-5 2l-4 1v0q-15 16-24 37t-9 46 10 45 24 37v0q2 1 5 2t4 1q6 0 9-3t4-9q0-2-1-5t-3-4v0q-13-13-20-29t-7-35q0-20 7-36t19-29v0q2-2 2-4t1-5q0-5-3-9t-9-3v0 0z m-42-49v0 0q-3 0-5 1t-4 3v0q-25 25-39 59t-14 72 14 74 40 59v0q2 2 4 3t5 0q5 0 9-3t4-9q0-2-1-4t-3-4v0q-21-23-35-53t-13-63 13-63 34-51v0q2-2 3-4t1-5q0-4-4-8t-9-4v0 0z" horiz-adv-x="1000" />

<glyph glyph-name="uniE945" unicode="&#xe945;" d="M714 849h-428q-59 0-111-22t-90-61-62-91-22-111v-428q0-59 22-111t62-91 90-61 111-22h428q59 0 111 22t91 61 61 91 22 111v428q0 59-22 111t-61 91-91 61-111 22v0z m144-419q0-12-7-19t-20-8q-11 0-19 8t-8 19v0 51l-239-240q-1 0-2-1t-2 0q-2 0-3 0l-1 1v0l-127 128q0 1-1 1t-2 1q-2 0-3-1t-1-1l-234-235q-4-5-10-7t-12-3q-12 0-19 8t-8 20q0 6 3 11t7 9v0l273 272q0 1 1 1t3 1q1 0 2-1t1-1v0l127-125q1-1 2-2t2 0 2 0 2 2l201 201h-53q-11 0-18 8t-7 18q0 12 7 20t18 8v0h140q3 0 4-2t1-3v0 0 0-139z" horiz-adv-x="1000" />

<glyph glyph-name="uniE946" unicode="&#xe946;" d="M714-149h-428q-59 0-111 22t-90 61-62 91-22 111v428q0 59 22 111t62 91 90 61 111 22h428q59 0 111-22t91-61 61-91 22-111v-428q0-59-22-111t-61-91-91-61-111-22v0z m-428 974q-54 0-101-21t-83-56-56-83-21-101v-428q0-54 21-101t56-83 83-56 101-21h428q54 0 101 21t83 56 56 83 21 101v428q0 54-21 101t-56 83-83 56-101 21v0h-428z m400-279v0q0-10 8-18t19-8v0h53l-201-201q-1-1-2-2t-2 0-2 0-2 2v0l-127 125q0 1-1 1t-2 1q-2 0-3-1t-1-1v0l-273-272q-3-4-6-8t-2-10q0-6 2-11t6-9v0q3-4 9-6t10-2q6 0 11 2t9 6v0l234 235q0 1 1 1t3 1q1 0 2-1t1-1v0l127-128 1-1t3 0q1 0 2 0t2 1v0l239 240v-51q0-12 8-19t19-8v0 0 0q12 0 20 8t7 19v139 0 0q0 2-1 3t-4 2h-140v0 0q-11 0-19-8t-8-20v0 0 0 0z" horiz-adv-x="1000" />

<glyph glyph-name="uniE947" unicode="&#xe947;" d="M714 849h-428q-59 0-111-22t-90-61-62-91-22-111v-428q0-59 22-111t62-91 90-61 111-22h428q59 0 111 22t91 61 61 91 22 111v428q0 59-22 111t-61 91-91 61-111 22v0z m-30-599q0-31-54-53t-130-22-130 22-54 53v87l178-46q2 0 3 0t3-1 3 1 3 0v0l178 46v-87z m168 148l-350-91h-1-1 0-2v0l-238 62q-1-1-1-3v-3-173q5-2 8-7t4-12v0 0 0q1-9 2-19t4-18v1 0-2q0-2-1-4t-3-3v0q-3-2-8-3t-10-1h-1q-5 0-10 1l-10 4v0q-2 1-3 3t0 3v2 0 0q1 8 3 17t3 18v1q0 6 4 12t9 7v0 173q0 3 1 5t1 4v0l-104 26q-1 0-3 2t-1 4 1 3 3 3v0l350 89h2 0 1 1v0l350-89q2 0 3-2t1-4-1-4-3-2v0 0z" horiz-adv-x="1000" />

<glyph glyph-name="uniE948" unicode="&#xe948;" d="M500 290v0 0q-2 0-3 1t-3 0v0l-178 46v-87q0-31 54-53t130-22 130 22 54 53v87l-178-46q-1 0-3 0t-3-1v0 0z m352 120l-350 89h-1-1 0-2v0l-350-89q-1 0-3-2t-1-4 1-4 3-2v0l104-26q-1-2-1-4t-1-5v-173q-6-2-9-7t-4-12v0 0 0q-1-10-3-20t-3-18v2-1-1q0-2 0-4t3-3v0q5-2 10-3t10-2v0q6 1 11 2t8 3v0q2 1 3 3t1 4v1 1 0q-3 8-4 17t-2 18v0 0 1q0 6-4 12t-8 7v0 173 3t1 3v0l238-62h2 0 1 1v0l350 91q2 0 3 2t1 4-1 3-3 3v0 0z m-138-559h-428q-59 0-111 22t-90 61-62 91-22 111v428q0 59 22 111t62 91 90 61 111 22h428q59 0 111-22t91-61 61-91 22-111v-428q0-59-22-111t-61-91-91-61-111-22v0z m-428 974q-54 0-101-21t-83-56-56-83-21-101v-428q0-54 21-101t56-83 83-56 101-21h428q54 0 101 21t83 56 56 83 21 101v428q0 54-21 101t-56 83-83 56-101 21v0h-428z" horiz-adv-x="1000" />

<glyph glyph-name="uniE949" unicode="&#xe949;" d="M714 849h-428q-59 0-111-22t-90-61-62-91-22-111v-428q0-59 22-111t62-91 90-61 111-22h428q59 0 111 22t91 61 61 91 22 111v428q0 59-22 111t-61 91-91 61-111 22v0z m-8-635q7-7 11-15t4-20q0-20-15-35t-35-15q-11 0-20 4t-15 11v0l-136 136-136-136q-7-7-15-11t-20-4q-20 0-35 15t-15 35q0 11 4 20t11 15l136 136-136 136q-7 7-11 15t-4 20q0 20 15 35t35 15q11 0 20-4t15-11l136-136 136 136q7 7 15 11t20 4q20 0 35-15t15-35q0-11-4-20t-11-15l-136-136z" horiz-adv-x="1000" />

<glyph glyph-name="uniE94A" unicode="&#xe94a;" d="M696 455q-4 2-8 4t-10 2q-5 0-10-2t-8-4l-68-69-69 69q-3 2-8 4t-9 2q-11 0-18-7t-7-18q0-5 1-9t5-9v0l69-68-69-68q-3-4-5-9t-1-9q0-11 7-18t18-7q5 0 9 2t8 5l69 68 68-68q3-3 8-5t10-2q11 0 18 7t7 18q0 5-2 9t-5 9v0l-69 68 69 68q3 4 5 9t2 9q0 6-2 10t-5 9v0 0z m18 394h-428q-59 0-111-22t-90-61-62-91-22-111v-428q0-59 22-111t62-91 90-61 111-22h428q59 0 111 22t91 61 61 91 22 111v428q0 59-22 111t-61 91-91 61-111 22v0z m152-639v0 0q0-14-10-25t-25-10v0 0h-413q-5 0-9 1t-10 4h1l-241 139q-9 5-13 13t-5 18 5 18 13 13v0l241 139q4 3 9 4t9 1h413v0 0q15 0 25-10t10-25v0 0 0-280z" horiz-adv-x="1000" />

<glyph glyph-name="uniE94B" unicode="&#xe94b;" d="M500 458q-11 0-18-7t-7-18v0l5-293q1-8 6-12t14-5 14 5 7 12v0l4 293q0 11-7 18t-18 7v0 0z m214 391h-428q-59 0-111-22t-90-61-62-91-22-111v-428q0-59 22-111t62-91 90-61 111-22h428q59 0 111 22t91 61 61 91 22 111v428q0 59-22 111t-61 91-91 61-111 22v0z m11-338q0-5-3-9t-7-4v0l-44-406q-1-7-7-12t-14-5h-300q-8 0-14 5t-7 13v0l-43 405q-5 0-8 4t-3 9v36q0 6 4 10t10 4h14v0 0q6 0 10 4t3 10v0 0 0 9q0 6 5 10t9 4h110q6 0 10 4t4 10v0q0 6 4 10t10 3v0 0h64q6 0 10-4t4-9v0q0-6 4-10t10-5v0h110v0 0q5 0 9-4t5-9v-9q0-5 4-10t9-4v0h14v0 0q6 0 10-4t4-10v0 0 0-36z m-352-54v0h-1q-9 0-16-6t-6-16v-1-1 0l18-292q2-7 8-12t12-5h1 1v0h0 1q7 0 12 5t5 13v0 0 0l-10 291q0 11-8 18t-17 6v0 0 0 0z m247 0q-10-1-16-7t-8-17v0l-9-291v0 0q0-7 5-12t12-5h0 2-1 1 0q7 0 13 5t6 12v0l17 291v2 0q0 9-7 16t-15 6v0 0z" horiz-adv-x="1000" />

<glyph glyph-name="uniE94C" unicode="&#xe94c;" d="M714-149h-428q-59 0-111 22t-90 61-62 91-22 111v428q0 59 22 111t62 91 90 61 111 22h428q59 0 111-22t91-61 61-91 22-111v-428q0-59-22-111t-61-91-91-61-111-22v0z m-428 974q-54 0-101-21t-83-56-56-83-21-101v-428q0-54 21-101t56-83 83-56 101-21h428q54 0 101 21t83 56 56 83 21 101v428q0 54-21 101t-56 83-83 56-101 21v0h-428z m420-611l-136 136 136 136q7 7 11 15t4 20q0 20-15 35t-35 15q-11 0-20-4t-15-11l-136-136-136 136q-7 7-15 11t-20 4q-20 0-35-15t-15-35q0-11 4-20t11-15l136-136-136-136q-7-7-11-15t-4-20q0-20 15-35t35-15q11 0 20 4t15 11l136 136 136-136q7-7 15-11t20-4q20 0 35 15t15 35q0 11-4 20t-11 15v0 0z" horiz-adv-x="1000" />

<glyph glyph-name="uniE94D" unicode="&#xe94d;" d="M831 525h-413q-5 0-9-1t-10-4h1l-241-139q-9-5-13-13t-5-18 5-18 13-13v0l241-139q4-3 9-4t9-1h413v0 0q15 0 25 10t10 25v0 0 0 280 0 0q0 14-10 25t-25 10v0 0 0 0z m-135-243q3-4 5-9t2-9q0-11-7-18t-18-7q-5 0-10 2t-8 5v0l-68 68-69-68q-3-3-8-5t-9-2q-11 0-18 7t-7 18q0 5 1 9t5 9l69 68-69 68q-3 4-5 9t-1 9q0 11 7 18t18 7q5 0 9-2t8-4v0l69-69 68 69q3 2 8 4t10 2q11 0 18-7t7-18q0-5-2-9t-5-9l-69-68z m18-431h-428q-59 0-111 22t-90 61-62 91-22 111v428q0 59 22 111t62 91 90 61 111 22h428q59 0 111-22t91-61 61-91 22-111v-428q0-59-22-111t-61-91-91-61-111-22v0z m-428 974q-54 0-101-21t-83-56-56-83-21-101v-428q0-54 21-101t56-83 83-56 101-21h428q54 0 101 21t83 56 56 83 21 101v428q0 54-21 101t-56 83-83 56-101 21v0h-428z" horiz-adv-x="1000" />

<glyph glyph-name="uniE94E" unicode="&#xe94e;" d="M714-149h-428q-59 0-111 22t-90 61-62 91-22 111v428q0 59 22 111t62 91 90 61 111 22h428q59 0 111-22t91-61 61-91 22-111v-428q0-59-22-111t-61-91-91-61-111-22v0z m-428 974q-54 0-101-21t-83-56-56-83-21-101v-428q0-54 21-101t56-83 83-56 101-21h428q54 0 101 21t83 56 56 83 21 101v428q0 54-21 101t-56 83-83 56-101 21v0h-428z m425-264h-14v0 0q-6 0-9 4t-4 10v0 0 0 9q0 6-5 10t-9 4v0h-110q-6 0-10 4t-4 10v0q0 6-4 10t-10 3v0 0h-64q-6 0-10-4t-4-9v0q0-6-4-10t-10-5h-110v0 0q-5 0-9-4t-5-9v-9q0-5-3-10t-10-4h-14q-6 0-10-4t-4-10v0-36q0-5 3-9t8-4v0l43-406q1-7 7-12t14-5h300q8 0 14 5t7 13v0l43 405q5 0 8 4t3 9v36 0 0q0 6-4 10t-10 4v0 0 0 0z m-321-436h-1-1q-7 0-12 5t-7 12v0l-19 291v1 1q0 9 6 16t16 6h1 0v0 0 0q10 0 17-7t8-17v0l10-291q0-7-5-12t-12-5h-1 0v0 0z m131 15q-1-7-7-12t-14-5-14 5-6 12v0l-5 293q0 11 7 18t18 7 18-7 7-18v0z m104 2q-1-8-6-12t-13-5h0 0v0h-1-1q-7 0-12 5t-5 12v0 0 0l10 291q0 10 7 17t16 7v0q9 0 15-6t7-15v-2-1 0z" horiz-adv-x="1000" />

<glyph glyph-name="uniE94F" unicode="&#xe94f;" d="M553 501q-21 20-47 31t-57 11q-60 0-103-42t-42-103 42-103 103-43 103 43 43 103v0 0 0 0 1q0 29-11 56t-31 46v0 0z m161 348h-428q-59 0-111-22t-90-61-62-91-22-111v-428q0-59 22-111t62-91 90-61 111-22h428q59 0 111 22t91 61 61 91 22 111v428q0 59-22 111t-61 91-91 61-111 22v0z m3-713q-4-5-9-7t-12-2q-6 0-11 2t-9 7l-100 100 0 0-1 1v0q-26-21-58-32t-68-11q-43 0-80 15-37 17-65 45t-43 65q-17 37-17 79 0 43 17 80 15 37 43 65t65 43q37 17 80 17 42 0 79-17 38-15 66-43t44-65 15-80q0-33-10-64t-28-56v1l2-2 0 0v0l100-100q4-4 6-9t3-11q0-7-3-12t-6-9v0z" horiz-adv-x="1000" />

<glyph glyph-name="uniE950" unicode="&#xe950;" d="M690 196l-82 82q0 1 0 1t-2 1q15 20 24 45t9 53q0 70-50 119t-118 48-119-48-49-119q0-70 49-119t119-49q29 0 55 10t47 26v-1l1-1 82-82q4-3 9-5t9-2q10 0 16 7t7 16q0 6-2 10t-5 8v0 0z m-220 61q-49 0-85 35t-35 85 35 85 85 36q25 0 47-10t38-26v0q16-16 26-38t9-47q0-49-35-85t-85-35v0 0 0 0z m244-406h-428q-59 0-111 22t-90 61-62 91-22 111v428q0 59 22 111t62 91 90 61 111 22h428q59 0 111-22t91-61 61-91 22-111v-428q0-59-22-111t-61-91-91-61-111-22v0z m-428 974q-54 0-101-21t-83-56-56-83-21-101v-428q0-54 21-101t56-83 83-56 101-21h428q54 0 101 21t83 56 56 83 21 101v428q0 54-21 101t-56 83-83 56-101 21v0h-428z" horiz-adv-x="1000" />

<glyph glyph-name="uniE951" unicode="&#xe951;" d="M714 849h-428q-59 0-111-22t-90-61-62-91-22-111v-428q0-59 22-111t62-91 90-61 111-22h428q59 0 111 22t91 61 61 91 22 111v428q0 59-22 111t-61 91-91 61-111 22v0z m61-788q0-4-2-7t-8-3v0h-542q-4 0-7 3t-3 7v543q0 4 3 7t7 3h60v0 0q4 0 7 3t3 6v0 0 0 21q0 4 3 7t7 3h71q4 0 7-3t3-7v-21q0-3 2-6t8-3h201v0 0q4 0 7 3t3 6v0 0 0 21q0 4 2 7t7 3v0 0h71q5 0 7-3t3-7v-21q0-3 3-6t7-3v0h60q5 0 8-3t2-7v0-543z m-452 514h31v0 0q4 0 7 3t2 6v0 0 0 41q0 4-2 7t-7 3h-31v0 0q-4 0-7-3t-2-7v0 0 0-40 0-1q0-3 2-6t7-3v0 0 0 0z m417-91h-493q-4 0-7-3t-3-8v0-380q0-4 3-7t7-3v0h493q4 0 7 3t3 7v0 380q0 5-3 8t-7 3v0 0z m-346-323q0-4-3-7t-6-2v0h-54q-3 0-5 2t-3 7v0 53q0 3 3 6t5 2v0h54q4 0 6-2t3-6v0-53z m0 89q0-2-3-5t-6-2v0h-54q-3 0-5 2t-3 5v0 54q0 4 3 6t5 3v0h54q4 0 6-3t3-6v0-54z m0 91q0-3-3-5t-6-3v0h-54q-3 0-5 3t-3 5v0 54q0 4 3 6t5 3v0h54q4 0 6-3t3-6v0-54z m89-180q0-4-2-7t-6-2v0h-53q-4 0-6 2t-3 7v0 53q0 3 3 6t6 2v0h53q4 0 6-2t2-6v0-53z m0 89q0-2-2-5t-6-2v0h-53q-4 0-6 2t-3 5v0 54q0 4 3 6t6 3v0h53q4 0 6-3t2-6v0-54z m0 91q0-3-2-5t-6-3v0h-53q-4 0-6 3t-3 5v0 54q0 4 3 6t6 3v0h53q4 0 6-3t2-6v0-54z m91-180q0-3-2-6t-7-2v0h-52q-4 0-7 2t-2 6v0 53q0 3 2 6t7 2v0h53q3 0 6-2t2-6v0-53z m0 89q0-2-2-5t-7-2v0h-52q-4 0-7 2t-2 5v0 54q0 4 2 6t7 3v0h53q3 0 6-3t2-6v0-54z m0 91q0-3-2-5t-7-3v0h-52q-4 0-7 3t-2 5v0 54q0 4 2 6t7 3v0h53q3 0 6-3t2-6v0-54z m90-180q0-3-2-6t-6-2v0h-53q-4 0-7 2t-2 6v0 53q0 3 2 6t7 2v0h53q3 0 6-2t2-6v0-53z m0 89q0-2-2-5t-6-2v0h-53q-4 0-7 2t-2 5v0 54q0 4 2 6t7 3v0h53q3 0 6-3t2-6v0-54z m0 91q0-3-2-5t-6-3v0h-53q-4 0-7 3t-2 5v0 54q0 4 2 6t7 3v0h53q3 0 6-3t2-6v0-54z m-29 234h30v0 0q4 0 7 3t3 6v1 0 0 40 0 0q0 4-3 7t-7 3v0 0h-30q-4 0-7-3t-3-7v0 0 0-40 0-1q0-3 3-6t7-3v0 0z" horiz-adv-x="1000" />

<glyph glyph-name="uniE952" unicode="&#xe952;" d="M714-149h-428q-59 0-111 22t-90 61-62 91-22 111v428q0 59 22 111t62 91 90 61 111 22h428q59 0 111-22t91-61 61-91 22-111v-428q0-59-22-111t-61-91-91-61-111-22v0z m-428 974q-54 0-101-21t-83-56-56-83-21-101v-428q0-54 21-101t56-83 83-56 101-21h428q54 0 101 21t83 56 56 83 21 101v428q0 54-21 101t-56 83-83 56-101 21v0h-428z m-63-774q-4 0-7 3t-3 7v543q0 4 3 7t7 3h60v0 0q4 0 7 3t3 6v0 0 0 21q0 4 3 7t7 3h71q4 0 7-3t3-7v-21q0-3 2-6t8-3h201v0 0q4 0 7 3t3 6v0 0 0 21q0 4 2 7t7 3v0 0h71q5 0 7-3t3-7v-21q0-3 3-6t7-3v0h60q5 0 8-3t2-7v0-543q0-4-2-7t-8-3v0h-542z m24 32h493q4 0 7 3t3 7v0 380q0 5-3 8t-7 3v0h-493q-4 0-7-3t-3-8v0-380q0-4 3-7t7-3v0 0z m378 522v-20 0-1q0-3 3-6t7-3h30v0 0q4 0 7 3t3 6v1 0 0 40 0 0q0 4-3 7t-7 3v0 0h-30q-4 0-7-3t-3-7v0 0 0-20z m-311 0v-20 0-1q0-3 2-6t7-3h31v0 0q4 0 7 3t2 6v0 0 0 41q0 4-2 7t-7 3h-31v0 0q-4 0-7-3t-2-7v0 0 0-20z m289-452h53q3 0 6 2t2 6v0 53q0 3-2 6t-6 2v0h-53q-4 0-7-2t-2-6v0-53q0-4 2-6t7-2v0 0 0z m-90 0h53q3 0 6 2t2 6v0 53q0 3-2 6t-6 2v0h-53q-4 0-7-2t-2-6v0-53q0-4 2-6t7-2v0 0 0z m-91 0h53q4 0 6 2t2 6v0 53q0 3-2 6t-6 2v0h-53q-4 0-6-2t-3-6v0-53q0-4 3-6t6-2v0 0 0z m-91 0h54q4 0 6 2t3 6v0 53q0 3-3 6t-6 2v0h-54q-3 0-5-2t-3-6v0-53q0-4 3-6t5-2v0 0 0z m272 90h53q3 0 6 2t2 5v0 54q0 4-2 6t-6 3v0h-53q-4 0-7-3t-2-6v0-54q0-2 2-5t7-2v0 0 0z m-90 0h53q3 0 6 2t2 5v0 54q0 4-2 6t-6 3v0h-53q-4 0-7-3t-2-6v0-54q0-2 2-5t7-2v0 0 0z m-91 0h53q4 0 6 2t2 5v0 54q0 4-2 6t-6 3v0h-53q-4 0-6-3t-3-6v0-54q0-2 3-5t6-2v0 0 0z m-91 0h54q4 0 6 2t3 5v0 54q0 4-3 6t-6 3v0h-54q-3 0-5-3t-3-6v0-54q0-2 3-5t5-2v0 0 0z m272 90h53q3 0 6 3t2 5v0 54q0 4-2 6t-6 3v0h-53q-4 0-7-3t-2-6v0-54q0-3 2-5t7-3v0z m-90 0h53q3 0 6 3t2 5v0 54q0 4-2 6t-6 3v0h-53q-4 0-7-3t-2-6v0-54q0-3 2-5t7-3v0z m-91 0h53q4 0 6 3t2 5v0 54q0 4-2 6t-6 3v0h-53q-4 0-6-3t-3-6v0-54q0-3 3-5t6-3v0z m-91 0h54q4 0 6 3t3 5v0 54q0 4-3 6t-6 3v0h-54q-3 0-5-3t-3-6v0-54q0-3 3-5t5-3v0z" horiz-adv-x="1000" />

<glyph glyph-name="uniE953" unicode="&#xe953;" d="M714 849h-428q-59 0-111-22t-90-61-62-91-22-111v-428q0-59 22-111t62-91 90-61 111-22h428q59 0 111 22t91 61 61 91 22 111v428q0 59-22 111t-61 91-91 61-111 22v0z m123-555q0-39-27-67t-65-31h-1q-4-59-28-91t-48-46q-14-8-29-13t-32-7h-1q-5-21-22-34t-38-13h-46q-25 1-43 19t-18 44 18 44 43 20v0h45 0 1q20 0 37-13t23-30v-1q22 4 59 27t43 94h-24q-8 0-14 5t-5 13v0 204q0 7 5 13t14 5v0 0h25v27q0 45-15 83-15 38-42 66t-62 45q-36 15-78 15h-24q-42 0-78-15-36-17-62-45t-41-66-15-83v-27h25v0 0q8 0 14-5t5-13v-205q0-7-5-12t-14-5h-55q-41 0-70 29t-29 69v43q0 39 27 68t65 31v0 27 2 1q0 50 18 94t48 76h-1q32 33 75 53t91 19h2 1-1 24 0 2q49 0 92-19t74-53v0q30-33 48-76t17-94v-1-2 0-27q39-3 66-31t26-68v0 0 0-43z" horiz-adv-x="1000" />

<glyph glyph-name="uniE954" unicode="&#xe954;" d="M714-151h-429q-58 1-110 23-53 23-91 61t-61 91-23 111v428q0 60 23 111t61 91 91 61q52 22 110 22h429q59 0 110-22 53-23 92-61t61-91 22-111v-428q0-59-22-111t-61-91-92-61q-51-22-110-23v0z m-429 976q-54-1-101-22-47-20-83-55t-56-83-21-102v-428q0-54 21-101t56-83 83-57q47-21 101-21h429v0 0q54 0 101 21t83 56 56 84 21 101v428q0 54-21 102t-56 83-83 56-101 21v0 0 0h-429z m488-379v30 2 2q0 55-20 103t-53 85v0q-35 38-82 59t-102 21h-2-1v0h-25-1-2q-54 0-102-21t-82-59v0q-34-37-54-85t-19-103v-2-2 0-30q-43-3-73-35t-30-75v-47q0-46 32-79t77-32h63q8 0 14 6t5 15v227q0 8-5 14t-14 6h-29v30q0 50 16 92 17 43 47 74t69 49 87 17h26q47 0 87-17t69-49 46-74q16-42 16-92v-30h-28q-8 0-13-6t-6-14v-227q0-9 6-15t13-6h28q-5-78-47-104t-67-31q-7 22-25 36t-41 13v0 0h-51q-29 0-50-20t-20-50 20-50 50-20h50q24 0 43 14t25 36v1q19 3 36 9t34 15h-1q27 15 53 51t32 100q43 3 73 35t30 76v47 0 0q0 43-30 75t-72 35h0v0z" horiz-adv-x="1000" />

<glyph glyph-name="uniE955" unicode="&#xe955;" d="M714 849h-428q-59 0-111-22t-90-61-62-91-22-111v-428q0-59 22-111t62-91 90-61 111-22h428q59 0 111 22t91 61 61 91 22 111v428q0 59-22 111t-61 91-91 61-111 22v0z m-52-558h67q5 0 10-4t4-10v-1-1 0l-8-44q-1-5-4-9t-10-4h-64v0 0q-6 0-10 5t-4 11v0 1 0l4 45q1 5 5 8t9 3h1 0v0 0z m-130 221q0 7 5 11t10 5v0 0h85v0 0q6 0 10-5t5-11v0-1 0l-6-71q0-6-5-10t-10-4h-79v0 0q-6 0-10 5t-5 10v0 0 0 71z m-1-127q0 6 5 10t10 5h0 1 74v0 0q7 0 11-5t5-10v0-1 0l-5-56q-1-6-5-10t-10-4h0-1-70v0 0q-6 0-10 4t-5 11v0 1 0 55z m-1-108q1 6 5 10t11 4v0 0h66q6 0 11-4t4-10v-1 0 0l-4-44q0-6-4-10t-11-4h-63v0 0q-6 0-10 4t-5 11v0 1 0 43z m-18-43v0 0q0-7-5-11t-10-5h-63q-6 0-11 4t-4 10v0l-4 44v0 1q0 6 4 10t11 4h66v0 0q7 0 11-4t5-10v0-43z m0 96v0 0q0-7-5-12t-11-4v0 0h-70q-6 0-10 4t-5 10v0l-5 56v1 0q0 6 5 10t10 5v0 0h75v0 0q6 0 10-5t5-10v0z m-102 198h85v0 0q6 0 10-5t5-11v0l1-71v0 0q0-6-5-10t-11-5v0 0h-78q-6 0-10 4t-6 10v0l-5 71v1 0q0 7 4 11t10 5v0 0z m-14-249l3-44v-2 0q0-6-3-10t-11-5v0 0h-64q-6 0-9 4t-5 8v0l-8 45v1 1q0 6 4 10t11 4h67v0 0q6 0 10-3t5-9v0 0z m-11 108l6-56v-1-1q0-6-5-11t-10-4v0 0h-71q-5 0-10 3t-5 10v0l-9 55q-1 1-1 2v1q0 6 5 10t11 5h74q6 0 10-4t5-9v-1 1z m-112 141h85q6 0 11-4t4-10v0l7-72v-1 0q0-7-4-11t-11-5v0 0h-79v0 0q-6 0-10 4t-4 9v0l-13 71v2 1q0 7 4 11t10 5v0 0 0 0z m483-363q-4-8-10-13t-14-7v0q1-2 2-5t0-6v0q0-12-8-21t-21-8-20 8-9 21v0q0 3 0 6t3 5h-1-328q1-2 2-5t1-6v0q0-12-9-21t-21-8q-12 0-21 8t-8 21v0q0 3 0 6t2 5v0h-8q-4 0-6 2t-3 7 3 7 6 3v0h439v0 0q4 0 7 1t4 6v0q1 1 1 3v2q0 3-1 6t-3 4v0h0-1v0 0h-436v0 0q-8 0-13 5t-8 12v0l-60 313q0 1-1 2t-1 0h-72q-4 0-7 3t-2 7q0 3 2 6t7 3h72q8 0 13-5t7-12v0l60-314 1-1t2 0h436q4 0 8-2t7-4v0q4-5 6-11t3-12q0-3-1-6t-2-6l1 1v0z m6 217l-10-55q-1-6-5-10t-10-3v0 0h-70v0 0q-7 0-11 4t-5 11v1 1 0l6 56q1 5 5 9t10 4h75q6 0 10-5t5-10v-1-2 0 0z m21 128l-11-72q-1-5-6-8t-9-4v0 0h-79v0 0q-7 0-11 5t-5 10v0 2 0l7 71q1 6 5 10t11 4h84v0 0q6 0 10-5t4-10v-2-1 0 0z" horiz-adv-x="1000" />

<glyph glyph-name="uniE956" unicode="&#xe956;" d="M714-149h-428q-59 0-111 22t-90 61-62 91-22 111v428q0 59 22 111t62 91 90 61 111 22h428q59 0 111-22t91-61 61-91 22-111v-428q0-59-22-111t-61-91-91-61-111-22v0z m-428 974q-54 0-101-21t-83-56-56-83-21-101v-428q0-54 21-101t56-83 83-56 101-21h428q54 0 101 21t83 56 56 83 21 101v428q0 54-21 101t-56 83-83 56-101 21v0h-428z m-14-387q1-5 4-8t10-4v0 0h79v0 0q6 0 11 5t4 10v0 2 0l-7 71q-1 6-5 10t-10 4h-85v0 0q-5 0-10-5t-4-11v-1-1 0z m145-12h79v0 0q6 0 10 5t5 10v0 0 0l-1 71q0 7-5 11t-10 5v0 0h-85v0 0q-6 0-10-5t-4-11v0-1 0l5-71q1-6 5-10t10-4h1 0v0 0z m130 0h79q6 0 10 4t5 10v0l6 71v1 0q0 7-5 11t-10 5v0 0h-85v0 0q-6 0-10-5t-5-11v0-71 0 0q0-6 5-10t10-5v0 0 0 0z m222 102h-84q-6 0-11-4t-5-10v0l-7-72v-1 0q0-7 5-11t11-5v0 0h78v0 0q6 0 10 4t5 9v0l12 72v1 1q0 7-4 11t-10 5v0 0 0 0z m-473-128q-7 0-11-5t-5-10v-1t1-2v0l9-55q1-6 5-10t10-3h71v0 0q6 0 10 4t5 11v1 1 0l-6 56q0 5-5 9t-10 4v0 0 0h-74z m200 0h-75v0 0q-6 0-10-5t-5-10v0-1 0l5-56q0-6 5-10t10-4h70v0 0q7 0 11 4t5 11v0 1-1l-1 56q0 6-5 10t-10 5v0 0 0 0z m50-86h70q6 0 11 4t5 10v0l4 56v1 0q0 6-4 10t-11 5h-74-1 0q-6 0-10-5t-5-10v0-56 0 0q0-6 5-11t10-4v0 0 0 0z m201 86h-75q-6 0-10-4t-5-10v0l-6-55v-2 0q0-6 5-11t10-4v0 0h71v0 0q5 0 10 3t5 9v0l10 56v2 1q0 6-5 10t-10 5v0 0z m-433-109q-6 0-11-4t-4-10v-1-1 0l8-44q1-5 5-9t9-4h64v0 0q7 0 11 5t3 11v0 1 0l-3 45q-1 5-5 8t-10 3v0 0 0h-67z m183 0h-67q-6 0-11-4t-4-10v-1 0 0l4-44q1-6 5-10t10-4h63q6 0 10 5t5 10v0 1 0 44q0 6-5 10t-10 3v0 0 0 0z m48-73h64q6 0 10 4t5 10v0l4 44v0 1q0 6-4 10t-12 4h-66v0 0q-6 0-10-4t-5-10v-44q0-6 4-10t10-5v0 0z m112 0h64q6 0 10 4t4 9v0l8 44v0 2q0 6-4 10t-10 4h-67v0 0q-6 0-10-3t-5-9v-1l-4-44v0-1q0-6 4-10t10-5v0 0z m77-13h-436q-1 0-2 0l-1 1v0l-60 314q-2 7-7 12t-13 5h-72q-4 0-7-3t-2-6q0-4 2-7t7-3h72q1 0 1 0t1-2v0l60-313q2-7 8-12t13-5v0 0h436v0 0h1t0-1v0q2-1 3-3t1-6v-2t-1-3v0q-1-4-4-6t-7-2v0 0h-439q-4 0-6-3t-3-6 3-7 6-2v0h8q-1-3-2-5t0-6v0q0-12 8-21t20-8q13 0 21 8t9 21v0 0 0q0 3-1 6t-1 5v0h328q-1-2-2-5t0-6v0q0-12 9-21t20-8 21 8 8 21v0q0 3 0 6t-3 6l1-1q11 2 19 11t7 20q0 6-3 12t-6 10v0q-3 3-7 5t-8 2v0 0z" horiz-adv-x="1000" />

<glyph glyph-name="uniE957" unicode="&#xe957;" d="M714 849h-428q-59 0-111-22t-90-61-62-91-22-111v-428q0-59 22-111t62-91 90-61 111-22h428q59 0 111 22t91 61 61 91 22 111v428q0 59-22 111t-61 91-91 61-111 22v0z m-152-300q3 4 5 6t7 3v0q3 0 6-2t6-5q2-2 2-4t1-6v0q4-26 12-50t21-45l-1 1q4-8 3-10t-10-3h-3q-17-2-21 1t-9 20q-6 19-11 39t-9 40q0 1-1 3t0 3v0q1 2 1 5t1 4v0z m-31-37q2 5 6 5t6-5q8-17 15-35t15-37q0-1 1-2t0-2q0-3-2-5t-6-4v0h-3-4v0q-2 0-4 1t-3 3v0q-6 16-12 31t-12 31q0 1 0 2t-1 3q0 4 1 8t3 6v0 0z m-39-127q2-8 0-13t-10-7-15-4-16-3l-2-1v0 0q-2 0-3 1t-1 3v1 1 0l4 11t5 12q1 1 4 3t4 1q4 1 8 2t8 0v0q3 0 8 0t6-7v0z m47-144q-25-21-86-66t-76-53q-5-2-11-3t-11-1h-1 0v0q-3-1-7-1h-9q-13 0-25 2t-25 6h1q-14 5-22 17t-9 27v0q-1 33-2 66t-2 65q-1 13-4 25l-6 23v-2q-8 28-15 56t-16 55q-2 5-3 11t0 10v0q0 9 5 12t12-2q5-5 10-11t8-12v0q9-18 17-37l15-37q1-2 4-4t5-2q4 0 7 2t3 5v0q11 31 27 82t18 58q2 5 5 8t10 4q5-1 9-5t2-11q-1-18-7-62t-10-66v-1-1q0-3 2-5t5-3v0l19-1v0 0q2 0 4 1t3 3v0q11 22 21 47t19 53l1 5q2 6 3 13t5 12q1 6 5 9t9 4v0h1v0q6 0 10-4t6-8v0l2-8t1-9v-2-3 0q-6-26-27-94t-27-88q-3-7-4-15t-1-15q0-9 2-18t3-16v0q6-15 18-19t27 5q9 5 18 10t18 9q6 3 12 5t14 2q4 0 6 0t7-2h-1q5-1 9-4t6-8v0q1-2-2-6t-5-7v0z m240 115q-10-17-17-36t-8-40v-1q0-9-3-16t-9-14v0q-11-12-26-22t-29-15h-1q-4-2-9-2t-10-1q-13 0-24 5t-20 12h1q-24 20-38 76t-15 67q-1 4 1 5t4 2l24 4 23 4 4 2t4 3v0q-2 1-4 3t-4 2h0-2q-3 0-5 0t-6-1v0q-15-2-31-4t-32-5q-6 1-11 3t-9 6v0q-2 2-3 4t-1 5q0 1 1 2t0 2v0q2 3 5 5t5 2v0q27 3 52 6t52 6h1v0q6 0 11-2t11-5h-1q11-5 15-4t7 13q3 22 6 69t4 57q1 6 4 12t5 11v0q3 4 7 6t9-1q3-1 5-5t4-8v0q1-8 4-75t6-113v0q0-3 3-5t7-2q1 0 3 0t2 1v-1q11 8 32 16t-4-33v0z" horiz-adv-x="1000" />

<glyph glyph-name="uniE958" unicode="&#xe958;" d="M714 849h-428q-59 0-111-22t-90-61-62-91-22-111v-428q0-59 22-111t62-91 90-61 111-22h428q59 0 111 22t91 61 61 91 22 111v428q0 59-22 111t-61 91-91 61-111 22v0z m261-713q0-54-21-101t-56-83-83-56-101-21h-428q-54 0-101 21t-83 56-56 83-21 101v428q0 54 21 101t56 83 83 56 101 21h428q54 0 101-21t83-56 56-83 21-101v0-428z m-444 130q-3 1-6 2t-6 0q-7 0-14-2t-12-5v0q-10-5-18-10t-19-9q-15-9-27-5t-17 19q-3 8-4 16t-2 18q0 7 2 15t3 16v-1q7 19 28 88t27 94v3 2q0 5-1 9t-3 8v0q-1 5-5 8t-10 3h0-1v0q-6 0-9-4t-6-8v0q-2-6-4-12t-3-13q-10-31-20-58t-23-52l3 5q-2-2-4-3t-4-1v0 0 0l-19 1q-3 0-5 3t-2 5v0 1 0q4 22 10 67t7 61q1 8-2 12t-9 4q-7 1-10-3t-5-9q-3-7-19-57t-26-82q-1-3-3-5t-7-2q-3 0-5 2t-4 4v0l-15 37t-17 37q-3 6-8 12t-10 10v0q-7 5-12 2t-5-11q0-6 0-11t3-11v1q8-28 16-55t15-56q4-10 7-21t3-24v-1q2-33 2-66t2-66q0-14 9-26t21-17h1q11-3 24-6t25-2h9t8 1h-1 0 1q5 0 11 1t11 4v-1q16 8 76 53t86 66q3 3 5 7t2 6q-3 4-6 8t-9 4v0 0z m220 108q-1-1-2-1t-3 0q-4 0-7 2t-3 6v0q-3 45-6 112t-4 75q-1 5-4 8t-5 6v0q-5 2-9 0t-7-6q-3-5-5-11t-4-11v-1q-1-10-4-57t-6-69q-1-12-6-13t-15 5q-5 3-10 5t-11 1h-1v0 0q-27-2-53-5t-51-6q-4-1-6-3t-5-4v0-3-2q0-2 1-5t2-4v0q4-3 9-5t11-3v0q17 1 32 4t31 4q3 1 6 1t6 1l1-1 0 0v0q2 0 4-1t4-4q-2-1-4-2t-4-2v-1q-12-2-23-3t-23-4q-4-1-5-3t-1-5q1-9 15-66t38-77q9-8 20-12t23-5q5 0 10 1l10 2h-1q16 6 31 16t25 21v0q6 6 9 14t4 16v0q1 22 8 42t17 36h-1q25 39 4 32t-32-15v0z m-170 80q5-17 9-19t21-1h3q9 1 10 3t-3 10q-12 20-20 44t-12 49v1q0 3-1 6t-2 4v0q-2 2-5 5t-7 2q-4-1-7-3t-4-6h-1q-1-2-1-4t-1-5q0-1 0-3t1-3v0q4-20 9-40t11-40v0z m-29-23q1-2 3-3t4-1v0h4 3v0q3 1 6 4t2 5q0 1 0 2t-1 2v0q-8 18-15 37t-15 35q-2 5-6 5t-6-5q-2-3-3-6t-1-8q0-1 1-3t0-2v0q5-16 12-31t12-31v0z m-98-45q-3-6-5-12l-4-11-1-1v-1t2-3 2-1h1v0 0q10 2 19 4t16 4h-2q7 2 10 7t0 13q-2 6-6 7t-8-1h-8t-8-1v0q-2 0-5-1t-3-3v0z" horiz-adv-x="1000" />

<glyph glyph-name="uniE959" unicode="&#xe959;" d="M714 849h-428q-59 0-111-22t-90-61-62-91-22-111v-428q0-59 22-111t62-91 90-61 111-22h428q59 0 111 22t91 61 61 91 22 111v428q0 59-22 111t-61 91-91 61-111 22v0z m64-348l-380-379-62 61-119 120q-6 6-9 14t-4 16q0 19 13 32t31 12q9 0 17-3t14-9v0l119-119 319 317q6 7 14 11t18 4q19 0 31-14t13-30q0-10-4-18t-10-15v0h-1z" horiz-adv-x="1000" />

<glyph glyph-name="uniE95A" unicode="&#xe95a;" d="M714-149h-428q-59 0-111 22t-90 61-62 91-22 111v428q0 59 22 111t62 91 90 61 111 22h428q59 0 111-22t91-61 61-91 22-111v-428q0-59-22-111t-61-91-91-61-111-22v0z m-428 974q-54 0-101-21t-83-56-56-83-21-101v-428q0-54 21-101t56-83 83-56 101-21h428q54 0 101 21t83 56 56 83 21 101v428q0 54-21 101t-56 83-83 56-101 21v0h-428z m175-642l320 320q6 6 10 15t3 18q0 17-13 30t-31 14q-10 0-18-4t-14-9v0l-320-320-121 120q-5 6-13 9t-17 3q-18 0-31-13t-13-32q0-8 3-16t9-14v0l183-183z" horiz-adv-x="1000" />

<glyph glyph-name="uniE95B" unicode="&#xe95b;" d="M555 462q-16 17-38 26t-47 10q-49 0-85-36t-35-85 35-85 85-35q50 0 85 35t35 85v0 0 0q0 26-9 47t-26 38v0 0z m-55 305q-86 0-162-33-76-32-133-89t-89-133q-33-76-33-162t33-162q32-76 89-133t133-89q76-33 162-33t162 33q76 32 133 89t89 133q33 76 33 162v0q0 86-33 162-32 76-89 133t-133 89q-76 33-162 33v0 0z m190-605q-2-3-7-5t-9-2-9 2-8 5l-83 82-1 1q-20-16-47-26t-55-10q-71 0-120 50t-49 119q0 70 49 119t120 49q69 0 118-49t50-119q0-28-9-53t-24-46l1 1q0-1 1-1t0-1l83-82q3-4 5-8t2-9q0-6-2-10t-5-7v0h-1z" horiz-adv-x="1000" />

<glyph glyph-name="uniE95C" unicode="&#xe95c;" d="M690 196l-82 82q0 1 0 1t-2 1q15 20 24 45t9 53q0 70-50 119t-118 48-119-48-49-119q0-70 49-119t119-49q29 0 55 10t47 26v-1l1-1 82-82q4-3 9-5t9-2q10 0 16 7t7 16q0 6-2 10t-5 8v0 0z m-220 61q-49 0-85 35t-35 85 35 85 85 36q25 0 47-10t38-26v0q16-16 26-38t9-47q0-49-35-85t-85-35v0 0 0 0z m30-333q-88 0-166 33-77 35-135 92t-92 135q-33 78-33 166t33 166q35 77 92 135t135 92q78 33 166 33t166-33q77-35 135-92t92-135q33-78 33-166v0q0-88-33-166-35-77-92-135t-135-92q-78-33-166-33v0 0z m0 825q-83 0-155-31-73-31-128-85t-85-128q-31-72-31-155t31-155q31-73 85-128t128-85q72-31 155-31t155 31q74 31 128 85t85 128q31 72 31 155v0q0 83-31 155-32 73-86 127t-127 86q-72 31-155 31v0 0z" horiz-adv-x="1000" />

<glyph glyph-name="uniE95D" unicode="&#xe95d;" d="M685 450h-365q-4 0-5-3t-2-5v0-281 0 0q0-3 2-5t5-2v0 0h365v0 0q3 0 5 2t1 5v0 0 0 281 0 0q0 3-1 5t-5 3v0 0 0z m-257-240q0-2-2-4t-4-1v0 0h-40v0 0q-2 0-4 1t-2 4v40q0 2 2 4t4 2h40q2 0 4-2t2-4v0-40z m0 67q0-2-2-4t-4-2v0h-40q-2 0-4 2t-2 4v0 40q0 2 2 4t4 2v0h40q2 0 4-2t2-4v0-40z m0 67q0-2-2-4t-4-2v0 0h-40v0 0q-2 0-4 2t-2 4v40q0 2 2 4t4 2v0h40q2 0 4-2t2-4v0-40z m66-133q0-3-1-5t-5-1v0 0h-40v0 0q-2 0-4 1t-2 5v39q0 2 2 4t4 2h40q3 0 5-2t1-4v0-39z m0 67q0-3-1-5t-5-1v0h-40q-2 0-4 1t-2 5v0 39q0 2 2 4t4 2v0h40q3 0 5-2t1-4v0-39z m0 67q0-3-1-5t-5-2v0 0h-40v0 0q-2 0-4 2t-2 5v39q0 2 2 4t4 2v0h40q3 0 5-2t1-4v0-39z m68-134q0-2-2-4t-4-1v0 0h-40v0 0q-2 0-4 1t-2 4v39q0 2 2 4t4 2h40q2 0 4-2t2-4v0-39z m0 67q0-2-2-4t-4-2v0h-40q-2 0-4 2t-2 4v0 39q0 2 2 4t4 2v0h40q2 0 4-2t2-4v0-39z m0 67q0-2-2-4t-4-2v0 0h-40v0 0q-2 0-4 2t-2 4v39q0 2 2 4t4 2v0h40q2 0 4-2t2-4v0-39z m67-133q0-3-2-5t-5-1v0 0h-40v0 0q-2 0-4 1t-2 5v38q0 2 2 4t4 2h40q3 0 5-2t1-4v0z m0 67q0-3-2-5t-5-1v0h-40q-2 0-4 1t-2 5v0 38q0 2 2 4t4 2v0h40q3 0 5-2t1-4v0z m0 67q0-3-2-4t-5-2v0 0h-40v0 0q-2 0-4 2t-2 4v38q0 2 2 4t4 2v0h40q3 0 5-2t1-4v0z m-23 171h23v0 0q3 0 5 2t2 5v0 0 0 30 0 0q0 3-2 5t-5 2v0 0h-23q-2 0-5-2t-2-5v0-29-1 0q0-3 2-5t5-2v0 0 0 0z m-230 0h22q3 0 6 2t2 5v0 30q0 3-2 5t-6 2h-22q-3 0-5-2t-2-5v0-29-1 0q0-3 2-5t5-2v0 0 0z m124 250q-86 0-162-33-76-32-133-89t-89-133q-33-76-33-162t33-162q32-76 89-133t133-89q76-33 162-33t162 33q76 32 133 89t89 133q33 76 33 162v0q0 86-33 162-32 76-89 133t-133 89q-76 33-162 33v0 0z m210-630q0-3-2-5t-5-2h-401q-3 0-6 2t-2 5v402q0 2 2 4t6 2h44q3 0 5 3t3 5v0 15q0 3 2 5t4 2h53v0 0q3 0 6-2t2-5v0 0 0-15q0-3 2-5t5-3v0h149q3 0 5 3t2 5v0 15 0 0q0 3 2 5t6 2v0 0h52q3 0 5-2t2-5v-15q0-3 2-5t5-3v0h45q3 0 5-2t2-4v0-402z" horiz-adv-x="1000" />

<glyph glyph-name="uniE95E" unicode="&#xe95e;" d="M319 159v0 0q-3 0-4 2t-2 4v350q0 2 2 4t4 2h38q3 0 5 2t2 5v0 12 0 0q0 2 2 4t4 2h47q2 0 4-2t2-4v0-12q0-3 2-5t5-2v0h129q3 0 5 2t1 5v0 12q0 2 2 4t4 2h45q3 0 5-2t2-4v-12q0-3 2-5t5-2v0h38q3 0 5-2t2-5v0-349q0-3-2-5t-5-2v0z m16 20h317q3 0 5 2t2 4v0 245q0 3-2 5t-5 2v0h-317q-3 0-5-2t-2-5v0-245 0 0q0-2 2-4t5-2v0 0 0 0z m243 336v-13q0-3 2-4t4-2h21q1 0 3 2t2 4v0 26q0 3-2 5t-3 2v0h-21q-2 0-4-2t-2-5v0-13z m-200 0v-13q0-3 1-4t5-2h19q3 0 5 2t2 4v0 26q0 3-2 5t-5 2v0h-19q-3 0-5-2t-1-5v0-13z m186-292h35q2 0 3 2t2 4v0 34 0 0q0 2-2 4t-3 2v0 0h-35q-2 0-4-2t-1-4v0-34q0-2 1-4t4-2v0z m-58 0h34q2 0 4 2t1 4v34q0 2-1 4t-4 2v0h-34q-2 0-4-2t-2-4v0-34q0-2 2-4t4-2v0 0z m-59 0h34q2 0 4 2t2 4v34q0 2-2 4t-4 2v0h-34v0 0q-2 0-4-2t-2-4v0 0 0-34q0-2 2-4t4-2v0 0 0 0z m-58 0h34q3 0 4 2t2 4v34q0 2-2 4t-4 2v0h-33v0 0q-3 0-5-2t-1-4v0 0 0-34q0-2 1-4t5-2v0 0 0h-1z m175 59h34q2 0 4 1t2 5v0 34q0 2-2 3t-4 2h-34q-2 0-4-2t-1-3v0-35q0-2 1-4t4-1v0 0z m-59 0h34q3 0 5 1t1 5v34q0 2-1 3t-5 2v0h-33q-2 0-4-2t-2-3v0-35q0-2 2-4t4-1v0h-1z m-59 0h35q2 0 4 1t1 5v34q0 2-1 3t-4 2v0h-34v0 0q-2 0-4-2t-2-3v-35q0-2 2-4t4-1v0 0 0h-1z m-57 0h34q2 0 3 1t2 5v34q0 2-2 3t-3 2v0h-33v0 0q-3 0-5-2t-1-3v-35q0-2 1-4t5-1v0 0 0h-1z m174 58h35v0 0q2 0 3 2t2 3v0 0 0 35 0 0q0 2-2 4t-3 1v0 0h-34q-2 0-4-1t-1-4v0-35q0-2 1-3t4-2v0h-1z m-58 0h34q2 0 4 2t1 3v0 35q0 2-1 4t-4 1v0h-33q-2 0-4-1t-2-4v0-35q0-2 2-3t4-2v0h-1z m-59 0h35q1 0 3 2t2 3v0 35q0 2-2 4t-3 1v0h-34v0 0q-2 0-4-1t-2-4v0 0 0-35 0 0q0-2 2-3t4-2v0 0 0h-1z m-58 0h34q3 0 4 2t2 3v0 35q0 2-2 4t-4 1v0h-32v0 0q-3 0-5-1t-1-4v0 0 0-35 0 0q0-2 1-3t5-2v0 0 0h-2z m112-416q-88 0-166 33-77 35-135 92t-92 135q-33 78-33 166t33 166q35 77 92 135t135 92q78 33 166 33t166-33q77-35 135-92t92-135q33-78 33-166v0q0-88-33-166-35-77-92-135t-135-92q-78-33-166-33v0 0z m0 825q-83 0-155-31-73-31-128-85t-85-128q-31-72-31-155t31-155q31-73 85-128t128-85q72-31 155-31t155 31q74 31 128 85t85 128q31 72 31 155v0q0 83-31 155-32 73-86 127t-127 86q-72 31-155 31v0 0z" horiz-adv-x="1000" />

<glyph glyph-name="uniE95F" unicode="&#xe95f;" d="M500 767q-86 0-162-33-76-32-133-89t-89-133q-33-76-33-162t33-162q32-76 89-133t133-89q76-33 162-33t162 33q76 32 133 89t89 133q33 76 33 162v0q0 86-33 162-32 76-89 133t-133 89q-76 33-162 33v0 0z m267-461q0-31-21-54t-53-24v0 0 0q0-34-16-63t-43-44l-1-1q-11-6-23-11t-25-6h-1q-4-16-17-26t-31-10v0 0h-36q-20 0-35 14t-15 36 15 35 35 14v0h36v0 0q17 0 29-9t18-25v0q35 5 58 32t23 62v1 1 0h-19q-6 0-11 4t-4 11v0 0 0 161q0 6 4 10t11 4h20v22 4 4q0 63-43 109t-106 48v0h-25q-65-1-111-47t-45-110v-1 0 0-4-3-22h21q5 0 9-4t4-10v-161 0-1q0-6-4-10t-9-4v0 0h-44q-33 0-56 23t-23 55v0 34q0 31 21 53t52 25h1v22 1 1q0 39 13 74t38 61v0q25 26 59 41t73 15h1 1-1 19 0 2q39 0 73-15t58-41v0q24-27 38-61t14-74v-1-1 0-22q31-3 51-25t21-53v0 0 0-34z" horiz-adv-x="1000" />

<glyph glyph-name="uniE960" unicode="&#xe960;" d="M767 306q0-31-21-54t-53-24v0 0 0q0-34-16-63t-43-44l-1-1q-11-6-23-11t-25-6h-1q-4-16-17-26t-31-10v0 0h-36q-20 0-35 14t-15 36 15 35 35 14v0h36v0 0q17 0 29-9t18-25v0q35 5 58 32t23 62v1 1 0h-19q-6 0-11 4t-4 11v0 0 0 161q0 6 4 10t11 4h20v22 4 4q0 63-43 109t-106 48v0h-25q-65-1-111-47t-45-110v-1 0 0-4-3-22h21q5 0 9-4t4-10v-161 0-1q0-6-4-10t-9-4v0 0h-44q-33 0-56 23t-23 55v0 34q0 31 21 53t52 25h1v22 1 1q0 39 13 74t38 61v0q25 26 59 41t73 15h1 1-1 19 0 2q39 0 73-15t58-41v0q24-27 38-61t14-74v-1-1 0-22q31-3 51-25t21-53v0 0 0-34z m-267 470q-88 0-166-33-77-35-135-92t-92-135q-33-78-33-166t33-166q35-77 92-135t135-92q78-33 166-33t166 33q77 35 135 92t92 135q33 78 33 166v0q0 88-33 166-35 77-92 135t-135 92q-78 33-166 33v0 0z m0-825q-83 0-155 31-73 31-128 85t-85 128q-31 72-31 155t31 155q31 74 85 128t128 85q72 31 155 31t155-31q74-31 128-85t85-128q31-72 31-155v0q0-83-31-155-32-72-86-127t-127-86q-72-31-155-31v0 0z" horiz-adv-x="1000" />

<glyph glyph-name="uniE961" unicode="&#xe961;" d="M795 645q-28 28-62 51-34 22-71 38t-78 24-84 9q-86 0-162-33-76-32-133-89t-89-133q-33-76-33-162 0-43 9-84t24-78 38-71q23-34 51-62v0q28-28 62-51 34-22 71-38t78-24 84-9q86 0 162 33 76 32 133 89t89 133q33 76 33 162 0 43-9 84t-24 78-38 71q-23 34-51 62v0 0z m-96-196l-233-233q-3-3-7-5t-10-2-9 2-8 5v0l-131 131q-3 3-5 8t-2 10q0 9 7 17t17 7q5 0 10-2t8-6v0l113-113 216 216q3 3 7 5t10 2q10 0 17-8t7-17q0-5-2-9t-5-8v0 0z" horiz-adv-x="1000" />

<glyph glyph-name="uniE962" unicode="&#xe962;" d="M795 645q-28 28-62 51-34 22-71 38t-78 24-84 9q-86 0-162-33-76-32-133-89t-89-133q-33-76-33-162 0-43 9-84t24-78 38-71q23-34 51-62v0q28-28 62-51 34-22 71-38t78-24 84-9q86 0 162 33 76 32 133 89t89 133q33 76 33 162 0 43-9 84t-24 78-38 71q-23 34-51 62v0 0z m-295-663q-76 0-144 29-66 29-116 79t-79 116q-29 68-29 144t29 144q29 66 79 116t116 79q68 29 144 29t144-29q66-29 116-79t79-116q29-68 29-144v0q0-76-29-144-29-66-79-116t-116-79q-68-29-144-29v0 0z m199 502q-4 3-8 5t-9 2-10-2-7-5l-216-216-113 113q-4 4-8 6t-10 2q-10 0-17-7t-7-17q0-5 2-10t5-8v0l131-131q3-3 8-5t9-2 10 2 7 5v0l233 234q3 3 5 7t2 9-2 10-5 8v0 0z" horiz-adv-x="1000" />

<glyph glyph-name="uniE963" unicode="&#xe963;" d="M500 776q-88 0-166-33-77-35-135-92t-92-135q-33-78-33-166t33-166q35-77 92-135t135-92q78-33 166-33t166 33q77 35 135 92t92 135q33 78 33 166v0q0 88-33 166-35 77-92 135t-135 92q-78 33-166 33v0 0z m217-592h-1-1-1 0v0 0 0q-3 0-6 1t-4 5v0q-43 76-113 91t-123 15v-73q0-3-2-6t-4-4h-1q-1-1-2-1h-2q-2 0-4 1t-4 1v0l-170 142q-2 1-3 3t-1 5v0q0 3 1 5t3 4v0l171 140q1 2 3 3t4 0q5 0 8-3t4-8v-73q81-4 129-33t73-58q24-30 39-67t15-78v0q0-4-2-8t-6-4v0 0z" horiz-adv-x="1000" />

<glyph glyph-name="uniE964" unicode="&#xe964;" d="M670 340q-24 31-73 59t-129 32v73q0 5-4 9t-7 3q-2 0-4-1l-4-2v0l-170-140q-2-1-3-3t-1-5v0q0-3 1-5t3-4v0l170-142q2-1 4-1t4-1h2t3 1h-1q3 1 5 4t2 6v0 73q53 0 123-15t113-91q1-3 4-5t6-1v0 0 0h0 1 1 1v0q4 1 6 4t2 7v0q-1 42-16 79t-39 67v-1 0z m-170 436q-88 0-166-33-77-35-135-92t-92-135q-33-78-33-166t33-166q35-77 92-135t135-92q78-33 166-33t166 33q77 35 135 92t92 135q33 78 33 166v0q0 88-33 166-35 77-92 135t-135 92q-78 33-166 33v0 0z m0-825q-83 0-155 31-73 31-128 85t-85 128q-31 72-31 155t31 155q31 74 85 128t128 85q72 31 155 31t155-31q74-31 128-85t85-128q31-72 31-155v0q0-83-31-155-32-72-86-127t-127-86q-72-31-155-31v0 0z" horiz-adv-x="1000" />

<glyph glyph-name="uniE965" unicode="&#xe965;" d="M83 350q0 86 32 162 33 76 90 133t132 89q76 33 162 33 87 0 162-33 76-32 133-89t90-133q32-76 32-162t-32-162q-33-76-90-133t-133-89q-75-33-162-33v0q-86 0-162 33-75 32-132 89t-90 133q-32 76-32 162v0 0z m192 148v-296 0 0q0-10 8-18t17-8v0h399v0 0q11 0 18 8t8 18v0 0 0 296 0 0q0 10-8 18t-18 8h-399q-10 0-17-8t-8-18v0 0 0 0z m376-269l-111 107-31-28q-2-2-4-2t-5-1v0 0 0 0 0q-3 0-5 1t-4 2v0l-30 27-112-105-4-2t-5-1v0q-3 0-5 1t-4 3v0q-2 2-3 4t-1 5 1 5 3 3v0l111 104-111 101q-3 1-4 3t-2 6q0 6 4 10t9 3q3 0 5-1t5-3v0l122-110 30-27 152 136q1 1 4 2t4 1q3 0 6-1t4-3v0l2-4t1-5-1-4-3-4v0l-110-99 110-105q2-2 3-4t1-5-1-5-3-4v0q-1-2-3-3t-6-1v0 0 0 0 0q-3 0-5 1l-4 2v0 0z" horiz-adv-x="1000" />

<glyph glyph-name="uniE966" unicode="&#xe966;" d="M699 524h-399q-10 0-17-8t-8-18v0 0 0-296 0 0q0-10 8-18t17-8v0h399v0 0q11 0 18 8t8 18v0 0 0 296q0 10-8 18t-18 8v0 0z m-30-276q2-2 3-4t1-5-1-5-3-4v0q-1-2-3-3t-6-1v0 0 0q-3 0-5 1l-4 2v0l-111 107-31-28q-2-2-4-2t-5-1v0 0 0 0 0q-3 0-5 1t-4 2v0l-30 27-112-105-4-2t-5-1v0q-3 0-5 1t-4 3v0q-2 2-3 4t-1 5 1 5 3 3v0l111 104-111 101q-3 1-4 3t-2 6q0 6 4 10t9 3q3 0 5-1t5-3v0l122-110 30-27 152 136q1 1 4 2t4 1q3 0 6-1t4-3v0l2-4t1-5-1-4-3-4v0l-110-99z m-169 528q-88 0-166-33-77-35-135-92t-92-135q-33-78-33-166t33-166q35-77 92-135t135-92q78-33 166-33t166 33q77 35 135 92t92 135q33 78 33 166v0q0 88-33 166-35 77-92 135t-135 92q-78 33-166 33v0 0z m0-825q-83 0-155 31-73 31-128 85t-85 128q-31 72-31 155t31 155q31 74 85 128t128 85q72 31 155 31t155-31q74-31 128-85t85-128q31-72 31-155v0q0-83-31-155-32-72-86-127t-127-86q-72-31-155-31v0 0z" horiz-adv-x="1000" />

<glyph glyph-name="uniE967" unicode="&#xe967;" d="M500 767q-86 0-162-33-76-32-133-89t-89-133q-33-76-33-162t33-162q32-76 89-133t133-89q76-33 162-33t162 33q76 32 133 89t89 133q33 76 33 162v0q0 86-33 162-32 76-89 133t-133 89q-76 33-162 33v0 0z m260-443l-212-212q-5-5-12-8t-14-3q-15 0-26 11t-12 26q0 8 3 15t8 12v0l144 143h-371q-18 0-31 12t-12 30 12 30 31 12v0h371l-144 144q-5 4-8 11t-3 15q0 16 12 26t26 11q7 0 14-3t12-8v0l212-212q5-4 8-11t3-15-3-15-8-11v0 0z" horiz-adv-x="1000" />

<glyph glyph-name="uniE968" unicode="&#xe968;" d="M495 588q-5-5-8-11t-3-15 3-15 8-11l144-144h-371q-18 0-31-12t-12-30 12-30 31-12v0h371l-144-143q-5-5-8-12t-3-15q0-15 12-26t26-11q7 0 14 3t12 8v0l212 212q5 5 8 11t3 15-3 15-8 11l-212 212q-5 5-12 8t-14 3-15-3-12-8v0 0z m5-664q-88 0-166 33-77 35-135 92t-92 135q-33 78-33 166t33 166q35 77 92 135t135 92q78 33 166 33t166-33q77-35 135-92t92-135q33-78 33-166v0q0-88-33-166-35-77-92-135t-135-92q-78-33-166-33v0 0z m0 825q-83 0-155-31-73-31-128-85t-85-128q-31-72-31-155t31-155q31-73 85-128t128-85q72-31 155-31t155 31q74 31 128 85t85 128q31 72 31 155v0q0 83-31 155-32 73-86 127t-127 86q-72 31-155 31v0 0z" horiz-adv-x="1000" />

<glyph glyph-name="uniE969" unicode="&#xe969;" d="M500 776q-88 0-166-33-77-35-135-92t-92-135q-33-78-33-166t33-166q35-77 92-135t135-92q78-33 166-33t166 33q77 35 135 92t92 135q33 78 33 166v0q0 88-33 166-35 77-92 135t-135 92q-78 33-166 33v0 0z m7-303v0q1 4 4 7t8 3h1t2-1v1q42-8 72-38t39-73v0-2 0q0-5-3-9t-7-3v0h-2v0 0q-5 0-8 2t-4 7v0q-6 35-31 60t-60 32h-1q-4 1-7 4t-3 8v1 1 0 0z m163-282q-3-3-6-6t-6-5l-8-8-7-7v-1 0 0q-9-10-22-16t-28-6h-1 0v0h-3-3q-21 2-41 8t-37 15l1 0q-41 20-75 47t-63 60v1q-21 23-38 51t-28 58l-1 3q-6 13-9 28t-3 30v4 4-1q1 12 6 23t14 18v0l30 30q6 6 13 9t16 4v0q9 0 17-4t13-9v0q4-4 9-8t8-9l8-7 24-24q6-6 10-14t4-17q0-7-3-14t-7-13v0l-2-1-2-2v0l-8-7q-4-6-9-11t-11-10q6-11 12-20t12-18v1q15-19 33-36t39-29l1-1 4-2t4-3l7-3 28 27q5 6 13 10t17 4v0q9 0 16-4t13-10v0l49-49q6-5 9-13t5-16v0q-1-10-5-17t-9-14v0 0z m28 170v0h0-1 0-1v0q-5 0-7 3t-4 7v0q-11 63-56 108t-107 56h-1q-5 1-8 4t-3 7q0 5 4 9t9 3h0 1v0q71-13 121-62t62-120l1-2v0-1q0-4-2-8t-7-4h-1v0z" horiz-adv-x="1000" />

<glyph glyph-name="uniE96A" unicode="&#xe96a;" d="M517 459q35-6 60-31t32-60v-1q0-4 4-7t8-3h2q4 1 7 4t3 8v0 2 0q-8 43-38 73t-73 39v0h-2-1q-4 0-8-3t-4-7v0-1-1q0-5 3-8t7-4v0 0z m153-208l-49 49q-5 6-13 10t-16 4v0q-9 0-17-4t-13-10v0l-29-27-7 3q-2 2-4 3t-4 2q-21 13-39 30t-33 35l-1 1q-6 8-12 17t-11 19v1q5 5 10 10t10 11l7 7 2 2 2 1v0q5 6 8 13t3 15q0 9-4 16t-10 13v1l-32 32q-4 4-8 8t-9 9q-5 6-13 9t-17 4v0q-9 0-16-4t-13-10v0l-30-29q-8-8-14-19t-6-22v-1-3-4q0-16 3-30t9-29v1q12-33 30-61t37-52v1q27-34 62-61t73-47l3 0q16-9 36-15t40-8h1 3 3 0 1q14 0 27 6t23 16v0 0 0q4 4 7 8l8 8v0q3 3 6 5t6 6v0q6 6 9 14t5 17v0q-1 9-5 17t-9 12v0 0z m-146 307q-1 0-1 1l0 0q-5 0-9-4t-4-9q0-4 3-7t8-4v0q62-11 107-56t57-107v-1q1-4 4-7t7-3v0h1 0 1 0v0 0q5 1 8 4t2 8v0 1 0q-13 71-63 121t-120 63h-1v0z m-24 218q-88 0-166-33-77-35-135-92t-92-135q-33-78-33-166t33-166q35-77 92-135t135-92q78-33 166-33t166 33q77 35 135 92t92 135q33 78 33 166v0q0 88-33 166-35 77-92 135t-135 92q-78 33-166 33v0 0z m0-825q-83 0-155 31-73 31-128 85t-85 128q-31 72-31 155t31 155q31 74 85 128t128 85q72 31 155 31t155-31q74-31 128-85t85-128q31-72 31-155v0q0-83-31-155-32-72-86-127t-127-86q-72-31-155-31v0 0z" horiz-adv-x="1000" />

<glyph glyph-name="uniE96B" unicode="&#xe96b;" d="M420 460q0-20 16-34t45-20v117q-29-6-45-23t-16-40v0z m105-160v-127q37 3 56 21t19 44q0 26-18 40t-57 22v0z m-25 476q-88 0-166-33-77-35-135-92t-92-135q-33-78-33-166t33-166q35-77 92-135t135-92q78-33 166-33t166 33q77 35 135 92t92 135q33 78 33 166v0q0 88-33 166-35 77-92 135t-135 92q-78 33-166 33v0 0z m25-682v-56h-44v56q-83 5-125 47t-44 96h93q4-24 24-41t52-22v137l-34 7q-56 13-91 46t-34 91q0 62 44 101t115 46v57h44v-56q76-5 118-45t46-95h-92q-4 24-22 40t-50 21v-129l40-9q59-13 95-44t36-94q0-65-44-107t-127-47v0z" horiz-adv-x="1000" />

<glyph glyph-name="uniE96C" unicode="&#xe96c;" d="M565 386q59-13 95-44t36-94q0-65-44-107t-127-47v-56h-44v56q-83 5-125 47t-44 96h93q4-24 24-41t52-22v137l-34 7q-56 13-91 46t-34 91q0 62 44 101t115 46v57h44v-56q76-5 118-45t46-95h-92q-4 24-22 40t-50 21v-129z m-84 137q-29-6-45-23t-16-40q0-20 16-34t45-20v117z m44-351q37 4 56 22t19 44q0 25-19 39t-56 23v-128z m-25 604q-88 0-166-33-77-35-135-92t-92-135q-33-78-33-166t33-166q35-77 92-135t135-92q78-33 166-33t166 33q77 35 135 92t92 135q33 78 33 166v0q0 88-33 166-35 77-92 135t-135 92q-78 33-166 33v0 0z m0-825q-83 0-155 31-73 31-128 85t-85 128q-31 72-31 155t31 155q31 74 85 128t128 85q72 31 155 31t155-31q74-31 128-85t85-128q31-72 31-155v0q0-83-31-155-32-72-86-127t-127-86q-72-31-155-31v0 0z" horiz-adv-x="1000" />

</font>
</defs>
</svg>
